<svg width="16" height="14" viewBox="0 0 16 14" fill="none" xmlns="http://www.w3.org/2000/svg">
<path d="M13.6577 2.85193C13.7983 2.90576 13.952 2.9375 14.1108 2.9375C14.8009 2.9375 15.3608 2.3916 15.3608 1.71875C15.3608 1.0459 14.8009 0.5 14.1108 0.5C13.4207 0.5 12.8608 1.0459 12.8608 1.71875C12.8608 1.77905 12.8706 1.83936 12.8804 1.89966L10.3965 3.83569C10.2567 3.78047 10.103 3.75 9.94417 3.75C9.78532 3.75 9.63167 3.78174 9.49157 3.83569L7.00928 1.89953C7.01709 1.83936 7.02751 1.77918 7.02751 1.71875C7.02751 1.0459 6.46761 0.5 5.77751 0.5C5.0874 0.5 4.52751 1.0459 4.52751 1.71875C4.52751 1.82666 4.54704 1.9314 4.57308 2.02979L1.92985 4.60693C1.82907 4.58281 1.72152 4.5625 1.61084 4.5625C0.920736 4.5625 0.36084 5.1084 0.36084 5.78125C0.36084 6.4541 0.920736 7 1.61084 7C2.30094 7 2.86084 6.4541 2.86084 5.78125C2.86084 5.67334 2.84131 5.5686 2.81527 5.47021L5.4585 2.89307C5.55876 2.91846 5.66813 2.9375 5.77751 2.9375C5.93701 2.9375 6.06657 2.90576 6.23011 2.85181L8.71396 4.78784C8.70459 4.84688 8.69417 4.90781 8.69417 4.96875C8.69417 5.6416 9.25407 6.1875 9.94417 6.1875C10.6343 6.1875 11.1942 5.6416 11.1942 4.96875C11.1942 4.90845 11.1844 4.84814 11.1746 4.78784L13.6577 2.85193ZM10.3608 8.625H9.52751C9.06735 8.625 8.69417 8.98885 8.69417 9.4375V12.6875C8.69417 13.1362 9.06735 13.5 9.52751 13.5H10.3608C10.821 13.5 11.1942 13.1362 11.1942 12.6875V9.4375C11.1942 8.98809 10.8218 8.625 10.3608 8.625ZM14.5275 5.375H13.6942C13.234 5.375 12.8608 5.73885 12.8608 6.1875V12.6875C12.8608 13.1362 13.234 13.5 13.6942 13.5H14.5275C14.9877 13.5 15.3608 13.1362 15.3608 12.6875V6.1875C15.3608 5.73809 14.9884 5.375 14.5275 5.375ZM6.19417 5.375H5.36084C4.8999 5.375 4.52751 5.73809 4.52751 6.1875V12.6875C4.52751 13.1362 4.90068 13.5 5.36084 13.5H6.19417C6.65433 13.5 7.02751 13.1362 7.02751 12.6875V6.1875C7.02751 5.73809 6.65511 5.375 6.19417 5.375ZM2.02751 9.4375H1.19417C0.734017 9.4375 0.36084 9.80135 0.36084 10.25V12.6875C0.36084 13.1362 0.734017 13.5 1.19417 13.5H2.02751C2.48766 13.5 2.86084 13.1362 2.86084 12.6875V10.25C2.86084 9.80059 2.48766 9.4375 2.02751 9.4375Z" fill="#2C6AC7"/>
</svg>
