<svg width="8" height="20" viewBox="0 0 8 20" fill="none" xmlns="http://www.w3.org/2000/svg">
<path fill-rule="evenodd" clip-rule="evenodd" d="M1.28033 9.87867C0.987437 9.58577 0.512563 9.58577 0.21967 9.87867C-0.0732233 10.1716 -0.0732233 10.6464 0.21967 10.9393L3.32172 14.0414C3.34269 14.0692 3.36585 14.096 3.39121 14.1213C3.53914 14.2692 3.73348 14.3425 3.92736 14.341C4.12084 14.3421 4.31469 14.2689 4.46231 14.1213C4.48765 14.096 4.5108 14.0693 4.53175 14.0414L7.63385 10.9393C7.92675 10.6464 7.92675 10.1716 7.63385 9.87868C7.34096 9.58578 6.86609 9.58578 6.57319 9.87868L3.92677 12.5251L1.28033 9.87867Z" fill="white"/>
<path fill-rule="evenodd" clip-rule="evenodd" d="M1.28033 9.87867C0.987437 9.58577 0.512563 9.58577 0.21967 9.87867C-0.0732233 10.1716 -0.0732233 10.6464 0.21967 10.9393L3.32172 14.0414C3.34269 14.0692 3.36585 14.096 3.39121 14.1213C3.53914 14.2692 3.73348 14.3425 3.92736 14.341C4.12084 14.3421 4.31469 14.2689 4.46231 14.1213C4.48765 14.096 4.5108 14.0693 4.53175 14.0414L7.63385 10.9393C7.92675 10.6464 7.92675 10.1716 7.63385 9.87868C7.34096 9.58578 6.86609 9.58578 6.57319 9.87868L3.92677 12.5251L1.28033 9.87867Z" fill="#112D4E" fill-opacity="0.5"/>
</svg>
