<svg width="8" height="6" viewBox="0 0 8 6" fill="none" xmlns="http://www.w3.org/2000/svg">
<path fill-rule="evenodd" clip-rule="evenodd" d="M1.28033 0.878666C0.987437 0.585773 0.512563 0.585773 0.21967 0.878666C-0.0732233 1.17156 -0.0732233 1.64643 0.21967 1.93933L3.32172 5.04137C3.34269 5.06923 3.36585 5.09595 3.39121 5.12132C3.53914 5.26924 3.73348 5.34246 3.92736 5.34096C4.12084 5.34215 4.31469 5.26893 4.46231 5.12131C4.48765 5.09597 4.5108 5.06926 4.53175 5.04144L7.63385 1.93934C7.92675 1.64644 7.92675 1.17157 7.63385 0.878675C7.34096 0.585782 6.86609 0.585782 6.57319 0.878675L3.92677 3.5251L1.28033 0.878666Z" fill="white"/>
<path fill-rule="evenodd" clip-rule="evenodd" d="M1.28033 0.878666C0.987437 0.585773 0.512563 0.585773 0.21967 0.878666C-0.0732233 1.17156 -0.0732233 1.64643 0.21967 1.93933L3.32172 5.04137C3.34269 5.06923 3.36585 5.09595 3.39121 5.12132C3.53914 5.26924 3.73348 5.34246 3.92736 5.34096C4.12084 5.34215 4.31469 5.26893 4.46231 5.12131C4.48765 5.09597 4.5108 5.06926 4.53175 5.04144L7.63385 1.93934C7.92675 1.64644 7.92675 1.17157 7.63385 0.878675C7.34096 0.585782 6.86609 0.585782 6.57319 0.878675L3.92677 3.5251L1.28033 0.878666Z" fill="#112D4E" fill-opacity="0.5"/>
</svg>
