<svg width="14" height="16" viewBox="0 0 14 16" fill="none" xmlns="http://www.w3.org/2000/svg">
<path d="M7.00069 0C7.55381 0 8.00068 0.446875 8.00068 1V1.6C10.2819 2.0625 12.0006 4.08125 12.0006 6.5V7.0875C12.0006 8.55625 12.5412 9.975 13.5162 11.075L13.7475 11.3344C14.01 11.6281 14.0725 12.05 13.9131 12.4094C13.7537 12.7688 13.3944 13 13.0006 13H1.00077C0.607023 13 0.250777 12.7688 0.0882788 12.4094C-0.0742188 12.05 -0.00859356 11.6281 0.253902 11.3344L0.485149 11.075C1.46014 9.975 2.00075 8.55937 2.00075 7.0875V6.5C2.00075 4.08125 3.71948 2.0625 6.0007 1.6V1C6.0007 0.446875 6.44757 0 7.00069 0ZM5.58508 15.4156C5.21009 15.0406 5.00072 14.5312 5.00072 14H7.00069H9.00066C9.00066 14.5312 8.79129 15.0406 8.4163 15.4156C8.0413 15.7906 7.53193 16 7.00069 16C6.46945 16 5.96008 15.7906 5.58508 15.4156Z" fill="white"/>
<path d="M7.00069 0C7.55381 0 8.00068 0.446875 8.00068 1V1.6C10.2819 2.0625 12.0006 4.08125 12.0006 6.5V7.0875C12.0006 8.55625 12.5412 9.975 13.5162 11.075L13.7475 11.3344C14.01 11.6281 14.0725 12.05 13.9131 12.4094C13.7537 12.7688 13.3944 13 13.0006 13H1.00077C0.607023 13 0.250777 12.7688 0.0882788 12.4094C-0.0742188 12.05 -0.00859356 11.6281 0.253902 11.3344L0.485149 11.075C1.46014 9.975 2.00075 8.55937 2.00075 7.0875V6.5C2.00075 4.08125 3.71948 2.0625 6.0007 1.6V1C6.0007 0.446875 6.44757 0 7.00069 0ZM5.58508 15.4156C5.21009 15.0406 5.00072 14.5312 5.00072 14H7.00069H9.00066C9.00066 14.5312 8.79129 15.0406 8.4163 15.4156C8.0413 15.7906 7.53193 16 7.00069 16C6.46945 16 5.96008 15.7906 5.58508 15.4156Z" fill="#112D4E" fill-opacity="0.8"/>
</svg>
