<svg width="13" height="8" viewBox="0 0 13 8" fill="none" xmlns="http://www.w3.org/2000/svg">
<path fill-rule="evenodd" clip-rule="evenodd" d="M5.29722 1.06681L1.06068 5.30335C0.474891 5.88914 0.474891 6.83889 1.06068 7.42467C1.64646 8.01046 2.59621 8.01046 3.182 7.42467L6.36398 4.24269L9.54594 7.42466C10.1317 8.01044 11.0815 8.01044 11.6673 7.42466C12.253 6.83887 12.253 5.88912 11.6673 5.30334L7.42464 1.06071C7.42463 1.06071 7.42463 1.0607 7.42462 1.06069C6.83883 0.474908 5.88909 0.474908 5.3033 1.06069C5.30127 1.06273 5.29924 1.06477 5.29722 1.06681Z" fill="white"/>
<path fill-rule="evenodd" clip-rule="evenodd" d="M5.29722 1.06681L1.06068 5.30335C0.474891 5.88914 0.474891 6.83889 1.06068 7.42467C1.64646 8.01046 2.59621 8.01046 3.182 7.42467L6.36398 4.24269L9.54594 7.42466C10.1317 8.01044 11.0815 8.01044 11.6673 7.42466C12.253 6.83887 12.253 5.88912 11.6673 5.30334L7.42464 1.06071C7.42463 1.06071 7.42463 1.0607 7.42462 1.06069C6.83883 0.474908 5.88909 0.474908 5.3033 1.06069C5.30127 1.06273 5.29924 1.06477 5.29722 1.06681Z" fill="#112D4E" fill-opacity="0.8"/>
</svg>
