<svg width="13" height="8" viewBox="0 0 13 8" fill="none" xmlns="http://www.w3.org/2000/svg">
<path fill-rule="evenodd" clip-rule="evenodd" d="M5.29722 7.41854L1.06068 3.182C0.474891 2.59621 0.474891 1.64646 1.06068 1.06068C1.64646 0.474891 2.59621 0.474891 3.182 1.06068L6.36398 4.24266L9.54594 1.0607C10.1317 0.474909 11.0815 0.474909 11.6673 1.0607C12.253 1.64648 12.253 2.59623 11.6673 3.18202L7.42464 7.42464C7.42463 7.42464 7.42463 7.42465 7.42462 7.42466C6.83883 8.01044 5.88909 8.01044 5.3033 7.42466C5.30127 7.42262 5.29924 7.42058 5.29722 7.41854Z" fill="white"/>
<path fill-rule="evenodd" clip-rule="evenodd" d="M5.29722 7.41854L1.06068 3.182C0.474891 2.59621 0.474891 1.64646 1.06068 1.06068C1.64646 0.474891 2.59621 0.474891 3.182 1.06068L6.36398 4.24266L9.54594 1.0607C10.1317 0.474909 11.0815 0.474909 11.6673 1.0607C12.253 1.64648 12.253 2.59623 11.6673 3.18202L7.42464 7.42464C7.42463 7.42464 7.42463 7.42465 7.42462 7.42466C6.83883 8.01044 5.88909 8.01044 5.3033 7.42466C5.30127 7.42262 5.29924 7.42058 5.29722 7.41854Z" fill="#112D4E" fill-opacity="0.8"/>
</svg>
