<svg width="15" height="20" viewBox="0 0 15 20" fill="none" xmlns="http://www.w3.org/2000/svg">
<path fill-rule="evenodd" clip-rule="evenodd" d="M4.5 6.1344C2.01472 6.1344 0 8.14912 0 10.6344C0 12.1946 0.794014 13.5694 2 14.3766V17.365C2 17.7268 2.37243 17.9689 2.70307 17.8219L8.75 15.1344H10.5C12.9853 15.1344 15 13.1197 15 10.6344C15 8.14912 12.9853 6.1344 10.5 6.1344H4.5ZM3 12.1344C3 11.5821 3.44772 11.1344 4 11.1344H7C7.55228 11.1344 8 11.5821 8 12.1344C8 12.6867 7.55228 13.1344 7 13.1344H4C3.44772 13.1344 3 12.6867 3 12.1344ZM4 8.1344C3.44772 8.1344 3 8.58211 3 9.1344C3 9.68668 3.44772 10.1344 4 10.1344H10C10.5523 10.1344 11 9.68668 11 9.1344C11 8.58211 10.5523 8.1344 10 8.1344H4Z" fill="white"/>
<path fill-rule="evenodd" clip-rule="evenodd" d="M4.5 6.1344C2.01472 6.1344 0 8.14912 0 10.6344C0 12.1946 0.794014 13.5694 2 14.3766V17.365C2 17.7268 2.37243 17.9689 2.70307 17.8219L8.75 15.1344H10.5C12.9853 15.1344 15 13.1197 15 10.6344C15 8.14912 12.9853 6.1344 10.5 6.1344H4.5ZM3 12.1344C3 11.5821 3.44772 11.1344 4 11.1344H7C7.55228 11.1344 8 11.5821 8 12.1344C8 12.6867 7.55228 13.1344 7 13.1344H4C3.44772 13.1344 3 12.6867 3 12.1344ZM4 8.1344C3.44772 8.1344 3 8.58211 3 9.1344C3 9.68668 3.44772 10.1344 4 10.1344H10C10.5523 10.1344 11 9.68668 11 9.1344C11 8.58211 10.5523 8.1344 10 8.1344H4Z" fill="#112D4E" fill-opacity="0.8"/>
</svg>
