<svg width="16" height="16" viewBox="0 0 16 16" fill="none" xmlns="http://www.w3.org/2000/svg">
<path d="M14.0967 0.5H7.53418C6.75781 0.5 6.12793 1.12959 6.12793 1.90625V4.25029L1.90918 4.25C1.13252 4.25 0.50293 4.87959 0.50293 5.65625V14.5625C0.50293 15.0802 0.922754 15.5 1.44043 15.5H14.5654C15.0831 15.5 15.5029 15.0802 15.5029 14.5625V1.90625C15.5029 1.12959 14.873 0.5 14.0967 0.5ZM4.25293 10.3438C4.25293 10.6026 4.04305 10.8125 3.78418 10.8125H2.84668C2.58781 10.8125 2.37793 10.6026 2.37793 10.3438V9.40625C2.37793 9.14732 2.58781 8.9375 2.84668 8.9375H3.78418C4.04305 8.9375 4.25293 9.14732 4.25293 9.40625V10.3438ZM4.25293 7.53125C4.25293 7.79012 4.04305 8 3.78418 8H2.84668C2.58781 8 2.37793 7.79012 2.37793 7.53125V6.59375C2.37793 6.33482 2.58781 6.125 2.84668 6.125H3.78418C4.04305 6.125 4.25293 6.33482 4.25293 6.59375V7.53125ZM9.87793 9.40625C9.87793 9.66512 9.66805 9.875 9.40918 9.875H8.47168C8.21387 9.875 8.00293 9.66406 8.00293 9.40625V8.46875C8.00293 8.21094 8.21387 8 8.47168 8H9.40918C9.66699 8 9.87793 8.21094 9.87793 8.46875V9.40625ZM9.87793 6.59375C9.87793 6.85156 9.66699 7.0625 9.40918 7.0625H8.47168C8.21387 7.0625 8.00293 6.85156 8.00293 6.59375V5.65625C8.00293 5.39844 8.21387 5.1875 8.47168 5.1875H9.40918C9.66699 5.1875 9.87793 5.39844 9.87793 5.65625V6.59375ZM9.87793 3.78125C9.87793 4.03906 9.66699 4.25 9.40918 4.25H8.47168C8.21387 4.25 8.00293 4.03906 8.00293 3.78125V2.84375C8.00293 2.58477 8.21387 2.375 8.47168 2.375H9.40918C9.66699 2.375 9.87793 2.58477 9.87793 2.84375V3.78125ZM13.6279 9.40625C13.6279 9.66512 13.418 9.875 13.1592 9.875H12.2217C11.9639 9.875 11.7529 9.66406 11.7529 9.40625V8.46875C11.7529 8.21094 11.9639 8 12.2217 8H13.1592C13.417 8 13.6279 8.21094 13.6279 8.46875V9.40625ZM13.6279 6.59375C13.6279 6.85156 13.417 7.0625 13.1592 7.0625H12.2217C11.9639 7.0625 11.7529 6.85156 11.7529 6.59375V5.65625C11.7529 5.39844 11.9639 5.1875 12.2217 5.1875H13.1592C13.417 5.1875 13.6279 5.39844 13.6279 5.65625V6.59375ZM13.6279 3.78125C13.6279 4.03906 13.417 4.25 13.1592 4.25H12.2217C11.9639 4.25 11.7529 4.03906 11.7529 3.78125V2.84375C11.7529 2.58477 11.9639 2.375 12.2217 2.375H13.1592C13.417 2.375 13.6279 2.58477 13.6279 2.84375V3.78125Z" fill="#2C6AC7"/>
</svg>
