<svg width="17" height="14" viewBox="0 0 17 14" fill="none" xmlns="http://www.w3.org/2000/svg">
<path d="M2.55 7H7.65C8.1175 7 8.5 6.63438 8.5 6.1875V1.3125C8.5 0.865625 8.1175 0.5 7.65 0.5H2.55C2.0825 0.5 1.7 0.865625 1.7 1.3125V6.1875C1.7 6.63438 2.0825 7 2.55 7ZM11.05 7H14.45C14.9175 7 15.3 6.63438 15.3 6.1875V2.9375C15.3 2.49063 14.9175 2.125 14.45 2.125H11.05C10.5825 2.125 10.2 2.49063 10.2 2.9375V6.1875C10.2 6.63438 10.5825 7 11.05 7ZM14.45 8.625H2.55C1.14219 8.625 0 9.7168 0 11.0625C0 12.4082 1.14219 13.5 2.55 13.5H14.45C15.8578 13.5 17 12.4082 17 11.0625C17 9.7168 15.8578 8.625 14.45 8.625ZM3.4 11.875C2.92852 11.875 2.55 11.5132 2.55 11.0625C2.55 10.6118 2.92852 10.25 3.4 10.25C3.87148 10.25 4.25 10.6118 4.25 11.0625C4.25 11.5132 3.87281 11.875 3.4 11.875ZM8.5 11.875C8.02852 11.875 7.65 11.5132 7.65 11.0625C7.65 10.6118 8.02852 10.25 8.5 10.25C8.97148 10.25 9.35 10.6118 9.35 11.0625C9.35 11.5132 8.97281 11.875 8.5 11.875ZM13.6 11.875C13.1285 11.875 12.75 11.5132 12.75 11.0625C12.75 10.6118 13.1285 10.25 13.6 10.25C14.0715 10.25 14.45 10.6118 14.45 11.0625C14.45 11.5132 14.0728 11.875 13.6 11.875Z" fill="#2C6AC7"/>
</svg>
