<svg width="22" height="22" viewBox="0 0 22 22" fill="none" xmlns="http://www.w3.org/2000/svg">
<rect y="0.00012207" width="22" height="22" rx="3" fill="white"/>
<rect y="0.00012207" width="22" height="22" rx="3" fill="#112D4E" fill-opacity="0.1"/>
<path d="M9.57143 13.5939C9.57143 13.7829 9.41071 13.9376 9.21429 13.9376C9.01786 13.9376 8.85714 13.7829 8.85714 13.5939V9.12512C8.85714 8.93606 9.01786 8.78137 9.21429 8.78137C9.41071 8.78137 9.57143 8.93606 9.57143 9.12512V13.5939ZM11.3571 13.5939C11.3571 13.7829 11.1964 13.9376 11 13.9376C10.8036 13.9376 10.6429 13.7829 10.6429 13.5939V9.12512C10.6429 8.93606 10.8036 8.78137 11 8.78137C11.1964 8.78137 11.3571 8.93606 11.3571 9.12512V13.5939ZM13.1429 13.5939C13.1429 13.7829 12.9821 13.9376 12.7857 13.9376C12.5893 13.9376 12.4286 13.7829 12.4286 13.5939V9.12512C12.4286 8.93606 12.5893 8.78137 12.7857 8.78137C12.9821 8.78137 13.1429 8.93606 13.1429 9.12512V13.5939ZM13.0871 5.53594L13.9063 6.71887H15.4643C15.7612 6.71887 16 6.94983 16 7.2345C16 7.52024 15.7612 7.75012 15.4643 7.75012H15.2857V14.2814C15.2857 15.231 14.4866 16.0001 13.5 16.0001H8.5C7.51384 16.0001 6.71429 15.231 6.71429 14.2814V7.75012H6.53571C6.23996 7.75012 6 7.52024 6 7.2345C6 6.94983 6.23996 6.71887 6.53571 6.71887H8.0942L8.91295 5.53594C9.14509 5.20115 9.53571 5.00012 9.95313 5.00012H12.0469C12.4643 5.00012 12.8549 5.20117 13.0871 5.53594ZM9.3817 6.71887H12.6183L12.1942 6.10786C12.1607 6.06016 12.1049 6.03137 12.0469 6.03137H9.95313C9.89509 6.03137 9.8192 6.06016 9.8058 6.10786L9.3817 6.71887ZM7.78571 14.2814C7.78571 14.6616 8.10558 14.9689 8.5 14.9689H13.5C13.8951 14.9689 14.2143 14.6616 14.2143 14.2814V7.75012H7.78571V14.2814Z" fill="white"/>
<path d="M9.57143 13.5939C9.57143 13.7829 9.41071 13.9376 9.21429 13.9376C9.01786 13.9376 8.85714 13.7829 8.85714 13.5939V9.12512C8.85714 8.93606 9.01786 8.78137 9.21429 8.78137C9.41071 8.78137 9.57143 8.93606 9.57143 9.12512V13.5939ZM11.3571 13.5939C11.3571 13.7829 11.1964 13.9376 11 13.9376C10.8036 13.9376 10.6429 13.7829 10.6429 13.5939V9.12512C10.6429 8.93606 10.8036 8.78137 11 8.78137C11.1964 8.78137 11.3571 8.93606 11.3571 9.12512V13.5939ZM13.1429 13.5939C13.1429 13.7829 12.9821 13.9376 12.7857 13.9376C12.5893 13.9376 12.4286 13.7829 12.4286 13.5939V9.12512C12.4286 8.93606 12.5893 8.78137 12.7857 8.78137C12.9821 8.78137 13.1429 8.93606 13.1429 9.12512V13.5939ZM13.0871 5.53594L13.9063 6.71887H15.4643C15.7612 6.71887 16 6.94983 16 7.2345C16 7.52024 15.7612 7.75012 15.4643 7.75012H15.2857V14.2814C15.2857 15.231 14.4866 16.0001 13.5 16.0001H8.5C7.51384 16.0001 6.71429 15.231 6.71429 14.2814V7.75012H6.53571C6.23996 7.75012 6 7.52024 6 7.2345C6 6.94983 6.23996 6.71887 6.53571 6.71887H8.0942L8.91295 5.53594C9.14509 5.20115 9.53571 5.00012 9.95313 5.00012H12.0469C12.4643 5.00012 12.8549 5.20117 13.0871 5.53594ZM9.3817 6.71887H12.6183L12.1942 6.10786C12.1607 6.06016 12.1049 6.03137 12.0469 6.03137H9.95313C9.89509 6.03137 9.8192 6.06016 9.8058 6.10786L9.3817 6.71887ZM7.78571 14.2814C7.78571 14.6616 8.10558 14.9689 8.5 14.9689H13.5C13.8951 14.9689 14.2143 14.6616 14.2143 14.2814V7.75012H7.78571V14.2814Z" fill="#112D4E" fill-opacity="0.8"/>
</svg>
