<svg width="16" height="14" viewBox="0 0 16 14" fill="none" xmlns="http://www.w3.org/2000/svg">
<path d="M14.8469 3.14688L10.5 6V3.77813C10.5 3.18813 9.8475 2.82906 9.3475 3.14531L5 6V1C5 0.447812 4.55219 0 4 0H1C0.447812 0 0 0.447812 0 1V13C0 13.5522 0.447812 14 1 14H15C15.5522 14 16 13.5522 16 13V3.77813C16 3.1875 15.3469 2.82813 14.8469 3.14688ZM12.625 11.0281H11.375C11.1687 11.0281 11 10.8594 11 10.6531V9.40312C11 9.19687 11.1687 9.02812 11.375 9.02812H12.625C12.8313 9.02812 13 9.19687 13 9.40312V10.6531C13 10.8594 12.8313 11.0281 12.625 11.0281ZM8.625 11.0281H7.375C7.16875 11.0281 7 10.8594 7 10.6531V9.40312C7 9.19687 7.16875 9.02812 7.375 9.02812H8.625C8.83125 9.02812 9 9.19687 9 9.40312V10.6531C9 10.8594 8.83125 11.0281 8.625 11.0281ZM4.625 11.0281H3.375C3.16875 11.0281 3 10.8594 3 10.6531V9.40312C3 9.19687 3.16875 9.02812 3.375 9.02812H4.625C4.83125 9.02812 5 9.19687 5 9.40312V10.6531C5 10.8594 4.83125 11.0281 4.625 11.0281Z" fill="#2C6AC7"/>
</svg>
