<svg width="20" height="16" viewBox="0 0 20 16" fill="none" xmlns="http://www.w3.org/2000/svg">
<path d="M8.61271 0.5C8.02214 0.5 7.545 0.978795 7.545 1.57143V1.64844V4.98326C7.545 5.17076 7.39486 5.32143 7.20801 5.32143C7.08789 5.32143 6.97445 5.25781 6.91439 5.15067L5.31283 2.34152C2.84041 3.56362 1.13875 6.1183 1.13875 9.07143V11.2143H18.2221V8.99107C18.1921 6.07143 16.4971 3.55357 14.048 2.34152L12.4465 5.15067C12.3864 5.25781 12.273 5.32143 12.1528 5.32143C11.966 5.32143 11.8158 5.17076 11.8158 4.98326V1.64844V1.57143C11.8158 0.978795 11.3387 0.5 10.7481 0.5H8.61271ZM0.624919 12.2857C0.317952 12.2857 0.0710449 12.5335 0.0710449 12.8415C0.0710449 12.9989 0.137777 13.1496 0.264567 13.24C0.988607 13.7723 3.80135 15.5 9.68042 15.5C15.5595 15.5 18.3722 13.7723 19.0963 13.24C19.2231 13.1462 19.2898 12.9989 19.2898 12.8415C19.2898 12.5335 19.0429 12.2857 18.7359 12.2857H0.624919Z" fill="#2C6AC7"/>
</svg>
