<svg width="15" height="14" viewBox="0 0 15 14" fill="none" xmlns="http://www.w3.org/2000/svg">
<path d="M14.9966 6.99996C14.9966 7.48121 14.6245 7.85036 14.1619 7.85036L13.3277 7.87497L13.3278 13.125C13.3278 13.6082 12.9541 14 12.5168 14H10.0137C9.55295 14 9.20274 13.6082 9.20274 13.1496L9.20276 10.5246C9.20277 10.0414 8.82909 9.64958 8.36831 9.64958H6.67559C6.21482 9.64958 5.86461 10.0414 5.84114 10.5V13.125C5.84113 13.6082 5.46747 14 5.00669 14H2.50387C2.04309 14 1.66942 13.6082 1.66942 13.125V7.87497H0.834444C0.370803 7.87497 1.8254e-05 7.48121 4.58092e-10 6.99996C-7.82251e-06 6.72926 0.100181 6.5105 0.284751 6.34097L6.93688 0.240547C7.14236 0.049796 7.35097 0 7.51004 0C7.70622 0 7.90249 0.0721059 8.05973 0.216536L14.7119 6.31696C14.921 6.5105 15.0201 6.72926 14.9966 6.99996Z" fill="#2C6AC7"/>
</svg>
