<svg width="15" height="16" viewBox="0 0 15 16" fill="none" xmlns="http://www.w3.org/2000/svg">
<path d="M14.6374 7.42371L12.9352 6.65327L8.201 8.79908C7.97835 8.89721 7.74398 8.94994 7.50082 8.94994C7.25767 8.94994 7.02623 8.89721 6.80065 8.80054L2.0664 6.65327L0.363711 7.42371C-0.119675 7.64342 -0.119675 8.37577 0.363711 8.59548L7.1897 11.689C7.38745 11.7805 7.61449 11.7805 7.81224 11.689L14.6382 8.59548C15.1207 8.37577 15.1207 7.64342 14.6374 7.42371ZM0.363711 4.83702L7.1897 7.93636C7.38745 8.02424 7.61449 8.02424 7.81224 7.93636L14.6374 4.83702C15.1207 4.61731 15.1207 3.88496 14.6374 3.66525L7.81136 0.565912C7.61361 0.478029 7.38657 0.478029 7.18882 0.565912L0.363711 3.66525C-0.119821 3.88496 -0.119821 4.61731 0.363711 4.83702ZM14.6374 11.1675L12.9417 10.3985L8.19866 12.5482C7.97835 12.6469 7.74398 12.6996 7.50082 12.6996C7.25767 12.6996 7.02476 12.6483 6.80123 12.5495L2.0582 10.3999L0.362539 11.1688C-0.120846 11.3885 -0.120846 12.1209 0.362539 12.3406L7.18853 15.4341C7.38628 15.522 7.61332 15.522 7.81107 15.4341L14.6371 12.3406C15.1207 12.1196 15.1207 11.3872 14.6374 11.1675Z" fill="#2C6AC7"/>
</svg>
