<svg width="15" height="16" viewBox="0 0 15 16" fill="none" xmlns="http://www.w3.org/2000/svg">
<path d="M7.21944 0C7.77256 0 8.21943 0.446875 8.21943 1V1.6C10.5006 2.0625 12.2194 4.08125 12.2194 6.5V7.0875C12.2194 8.55625 12.76 9.975 13.735 11.075L13.9662 11.3344C14.2287 11.6281 14.2912 12.05 14.1318 12.4094C13.9725 12.7688 13.6131 13 13.2194 13H1.21952C0.825773 13 0.469527 12.7688 0.307029 12.4094C0.144531 12.05 0.210156 11.6281 0.472652 11.3344L0.703899 11.075C1.67889 9.975 2.2195 8.55937 2.2195 7.0875V6.5C2.2195 4.08125 3.93823 2.0625 6.21945 1.6V1C6.21945 0.446875 6.66632 0 7.21944 0ZM5.80383 15.4156C5.42884 15.0406 5.21947 14.5312 5.21947 14H7.21944H9.21941C9.21941 14.5312 9.01004 15.0406 8.63505 15.4156C8.26005 15.7906 7.75068 16 7.21944 16C6.6882 16 6.17883 15.7906 5.80383 15.4156Z" fill="#112D4E"/>
</svg>
