<svg width="35" height="34" viewBox="0 0 35 34" fill="none" xmlns="http://www.w3.org/2000/svg">
<rect y="2" width="32" height="32" rx="16" fill="#3F72AF" fill-opacity="0.6"/>
<path fill-rule="evenodd" clip-rule="evenodd" d="M16.5 21.9854C16.5 23.0899 15.6046 23.9854 14.5 23.9854C13.3954 23.9854 12.5 23.0899 12.5 21.9854C12.5 20.8808 13.3954 19.9854 14.5 19.9854C15.6046 19.9854 16.5 20.8808 16.5 21.9854ZM17.8551 22.9854C17.4248 24.4311 16.0855 25.4854 14.5 25.4854C12.9145 25.4854 11.5752 24.4311 11.1449 22.9854H9.75C9.33579 22.9854 9 22.6496 9 22.2354C9 21.8211 9.33579 21.4854 9.75 21.4854H11.0354C11.2781 19.7892 12.7368 18.4854 14.5 18.4854C16.2632 18.4854 17.7219 19.7892 17.9646 21.4854H23.25C23.6642 21.4854 24 21.8211 24 22.2354C24 22.6496 23.6642 22.9854 23.25 22.9854H17.8551Z" fill="white"/>
<path fill-rule="evenodd" clip-rule="evenodd" d="M20.5 13.9853C20.5 15.0899 19.6046 15.9853 18.5 15.9853C17.3954 15.9853 16.5 15.0899 16.5 13.9853C16.5 12.8807 17.3954 11.9853 18.5 11.9853C19.6046 11.9853 20.5 12.8807 20.5 13.9853ZM21.8551 14.9853C21.4248 16.431 20.0855 17.4853 18.5 17.4853C16.9145 17.4853 15.5752 16.431 15.1449 14.9853H9.75C9.33579 14.9853 9 14.6495 9 14.2353C9 13.8211 9.33579 13.4853 9.75 13.4853H15.0354C15.2781 11.7891 16.7368 10.4853 18.5 10.4853C20.2632 10.4853 21.7219 11.7891 21.9646 13.4853H23.25C23.6642 13.4853 24 13.8211 24 14.2353C24 14.6495 23.6642 14.9853 23.25 14.9853H21.8551Z" fill="white"/>
<circle cx="29" cy="6" r="5" fill="#53C860" stroke="white" stroke-width="2"/>
</svg>
