<svg width="42" height="47" viewBox="0 0 42 47" xmlns="http://www.w3.org/2000/svg">
<path fill-rule="evenodd" clip-rule="evenodd" d="M2.18718 45.4709C2.1849 46.0285 2.32885 46.4489 2.83384 46.7129C7.18454 46.7129 11.5341 46.7129 15.8848 46.714C16.3909 46.4524 16.5634 46.0365 16.5337 45.4755C16.51 45.0266 16.5153 44.576 16.5208 44.1057V44.1057V44.1056C16.5232 43.8961 16.5257 43.6826 16.5257 43.4636H17.1416H39.5886C39.6111 43.4636 39.6337 43.4637 39.6564 43.4639C39.6755 43.464 39.6947 43.4642 39.7139 43.4644H39.7141C39.8087 43.4654 39.9037 43.4664 39.9987 43.4624C40.7482 43.4316 41.067 43.1037 41.0681 42.353C41.0706 41.3867 41.0701 40.4197 41.0696 39.453C41.0694 39.0665 41.0693 38.68 41.0693 38.2937C41.0693 37.2883 40.7722 36.9866 39.7748 36.9855C38.406 36.9847 37.0373 36.985 35.6686 36.9852L33.6155 36.9855H33.0568V32.468C33.109 32.4605 33.1602 32.4534 33.2106 32.4464L33.2108 32.4464C33.3292 32.4299 33.4435 32.4141 33.5572 32.3949C34.0611 32.3092 34.3524 31.9413 34.3216 31.434C34.2896 30.9073 33.8863 30.5771 33.2339 30.576C29.1585 30.5714 25.082 30.5726 21.0067 30.5771C20.8433 30.5771 20.6719 30.608 20.5165 30.6605C20.1338 30.7896 19.8562 31.2101 19.9202 31.5848C19.9921 32.0053 20.2104 32.3149 20.6662 32.3903C20.8226 32.4157 20.9789 32.4393 21.1393 32.4634L21.1401 32.4636L21.1405 32.4636L21.1998 32.4726V36.9615H16.5246C16.5246 36.67 16.5248 36.3803 16.525 36.0919L16.525 36.0871C16.5254 35.3668 16.5259 34.6546 16.5235 33.9418C16.52 33.1672 16.1956 32.8439 15.4141 32.8359C15.0289 32.8319 14.6437 32.8329 14.2552 32.8339H14.255H14.2548C14.081 32.8343 13.9066 32.8347 13.7312 32.8347V8.70368H21.9001V15.3383C21.7798 15.3383 21.662 15.3363 21.546 15.3343C21.2875 15.33 21.038 15.3258 20.7896 15.344C20.3212 15.3771 19.9773 15.7073 19.9122 16.1346C19.8539 16.5196 20.0812 16.9538 20.4629 17.0886C20.669 17.1615 20.907 17.1651 21.1315 17.1685H21.1315L21.1335 17.1686C21.5946 17.1759 22.0564 17.1745 22.5334 17.1731H22.5336H22.5338C22.728 17.1726 22.9247 17.172 23.1249 17.172V17.7273C23.1249 18.056 23.1255 18.3847 23.1261 18.7133V18.7135V18.7137C23.1276 19.4801 23.129 20.246 23.1226 21.012C23.1181 21.533 23.318 21.9043 23.7819 22.1648C24.1461 22.3693 24.5041 22.5852 24.8622 22.8011C25.2062 23.0085 25.5502 23.216 25.9001 23.4136C26.1309 23.5438 26.204 23.6958 26.2017 23.9528C26.1891 25.1388 26.1926 26.3247 26.1971 27.5106C26.1994 28.1836 26.5456 28.5812 27.1123 28.5834C27.679 28.5857 28.0217 28.1938 28.0252 27.5163C28.0309 26.3304 28.0343 25.1445 28.0217 23.9585C28.0183 23.6992 28.0971 23.5472 28.3268 23.417C28.6664 23.2235 29.0013 23.0214 29.3363 22.8193C29.7034 22.5977 30.0705 22.3762 30.4439 22.1659C30.9226 21.8963 31.1202 21.5136 31.1122 20.972C31.1 20.1328 31.1032 19.2929 31.1063 18.4534C31.1073 18.198 31.1083 17.9426 31.1088 17.6873C31.1088 17.5818 31.1152 17.4768 31.1221 17.3621L31.1221 17.362L31.1222 17.3617C31.1258 17.3013 31.1297 17.2382 31.1328 17.1709C31.363 17.1709 31.5889 17.1718 31.8119 17.1727H31.8125H31.8131C32.3247 17.1749 32.8207 17.177 33.3161 17.1674C33.9365 17.1549 34.3067 16.8121 34.317 16.2797C34.3273 15.7324 33.9331 15.3543 33.315 15.3348C33.0876 15.3269 32.8596 15.3289 32.6337 15.3308L32.6335 15.3308C32.5338 15.3317 32.4345 15.3325 32.3359 15.3325V8.66712H32.8694L34.6372 8.66726H34.6398C36.4067 8.66747 38.1736 8.66769 39.9404 8.66598C40.7471 8.66598 41.0658 8.34264 41.067 7.52917C41.0681 5.41552 41.0681 3.30187 41.067 1.18822C41.067 0.293626 40.7665 0 39.8548 0H6.23054C5.32795 0 5.02519 0.300481 5.02405 1.19621V12.0524V12.6019C4.82911 12.6019 4.64086 12.6009 4.45722 12.5999H4.45704H4.45686C4.06264 12.5977 3.68962 12.5957 3.31713 12.6042C1.46968 12.6465 0.030113 13.9604 0.0152603 15.6902C-0.00832236 18.4739 0.000300964 21.2577 0.00892428 24.0415L0.0118328 24.9959C0.0141178 25.67 0.263186 26.271 0.674491 26.8023C1.38285 27.7163 2.34713 28.0636 3.46908 28.0625H4.98977V32.8336C4.82615 32.8336 4.66548 32.8334 4.50693 32.8332C4.11747 32.8327 3.74072 32.8323 3.36397 32.8347C2.49452 32.8405 2.19632 33.1432 2.19632 34.0218C2.196 35.095 2.19649 36.1683 2.19698 37.2416V37.2416V37.2417V37.2418V37.2419C2.19824 39.9849 2.1995 42.7282 2.18718 45.4709ZM39.2172 6.80825H6.86921V5.08648H7.45989L12.3764 5.08657C18.932 5.08675 25.4883 5.08693 32.0445 5.08419C32.2845 5.08419 32.5301 5.06477 32.7655 5.01678C33.2179 4.92424 33.4155 4.58834 33.4555 4.16675C33.4944 3.76687 33.1768 3.37727 32.754 3.28245C32.5347 3.23332 32.3039 3.21618 32.0788 3.21618C23.8847 3.21389 15.6894 3.21389 7.49416 3.21389H6.88063V1.85202H39.2172V6.80825ZM6.89206 32.8016V8.68883H8.40361V9.24523L8.40346 13.5434V13.5497C8.40325 17.8458 8.40304 22.1418 8.40475 26.4378L8.40495 26.4774C8.4058 26.6614 8.40667 26.8492 8.44931 27.025C8.55556 27.4592 8.98972 27.762 9.39874 27.7174C9.83746 27.6694 10.1802 27.3278 10.2236 26.8811C10.2383 26.7264 10.2379 26.57 10.2375 26.4133L10.2373 26.335V9.27836V8.70139H11.8471V32.8016H6.89206ZM16.5577 38.8889H39.2252V41.5761H16.5577V38.8889ZM14.6669 34.7039V44.8666H4.0472V34.7039H14.6669ZM23.1169 36.9421V32.452H31.1397V36.9421H23.1169ZM4.47395 14.4663L4.47468 14.4663H4.47472C4.64812 14.467 4.82366 14.4677 5.00234 14.4677C5.00234 18.4128 5.00234 22.2802 5.00348 26.1819C4.78871 26.1819 4.57554 26.1861 4.36376 26.1902H4.36372C3.88491 26.1996 3.41317 26.2089 2.94581 26.1693C2.26716 26.111 1.83414 25.4861 1.83186 24.6715C1.8277 23.4234 1.82838 22.1747 1.82906 20.9263C1.82932 20.4582 1.82957 19.9901 1.82957 19.5222C1.82957 19.1925 1.82939 18.8627 1.8292 18.533C1.82873 17.7083 1.82827 16.8835 1.83072 16.0592C1.83414 15.0081 2.34599 14.4837 3.38454 14.4688C3.74444 14.4634 4.10433 14.4648 4.47395 14.4663ZM25.4271 8.85897L25.4271 8.85892L25.4269 8.85879C25.3777 8.80721 25.3255 8.75242 25.2694 8.69225C26.5205 8.69225 27.7053 8.69225 28.7964 8.68997C28.7485 8.802 28.6973 8.91412 28.6457 9.02686L28.6457 9.02691C28.5138 9.31543 28.38 9.60802 28.2971 9.9136C28.2548 10.0667 28.409 10.3226 28.5439 10.4654C28.9689 10.9144 29.3779 10.7945 30.3959 9.94102V14.0998C30.3513 14.142 30.3056 14.1832 30.2599 14.2243C30.2239 14.1703 30.1901 14.1138 30.1564 14.0573L30.1564 14.0573C30.081 13.9312 30.0056 13.805 29.9046 13.7056C29.4602 13.2669 28.9095 13.2417 28.5301 13.6153C28.1668 13.973 28.1805 14.5122 28.5656 14.9647C28.6194 15.0288 28.6756 15.091 28.7433 15.166L28.7434 15.1662C28.7807 15.2074 28.8214 15.2525 28.8672 15.304H25.4991C25.543 15.2016 25.5911 15.0993 25.6395 14.9965L25.6395 14.9964L25.6396 14.9963C25.7623 14.7355 25.8866 14.4712 25.9481 14.1935C25.9858 14.0232 25.8258 13.7342 25.6681 13.6085C24.9781 13.0584 24.5288 13.4924 24.0582 13.9469L24.0582 13.9469L24.0582 13.947C23.9833 14.0192 23.908 14.092 23.831 14.1615V9.99586C23.8464 9.98272 23.8618 9.9693 23.8773 9.95587C23.8927 9.94245 23.9081 9.92903 23.9235 9.91589C23.9721 9.97201 24.0189 10.0301 24.0656 10.0881C24.1672 10.2143 24.2688 10.3403 24.3885 10.446C24.8033 10.8128 25.3494 10.8116 25.7001 10.4666C26.0509 10.1215 26.0532 9.58341 25.6979 9.15497C25.6164 9.05739 25.5282 8.96498 25.4271 8.85897ZM24.9942 17.9952C24.9947 17.7317 24.9952 17.4666 24.9952 17.1994H29.2339C29.2339 17.455 29.2343 17.7093 29.2346 17.9624V17.9633V17.9643C29.2358 18.8474 29.237 19.7172 29.2237 20.587C29.2225 20.6852 29.0877 20.8121 28.9837 20.876C28.4433 21.2119 27.8995 21.5455 27.3396 21.8472C27.2163 21.9134 26.9923 21.8997 26.8655 21.8312C26.3194 21.5353 25.7858 21.2142 25.2626 20.8795C25.1437 20.8041 25.0089 20.6372 25.0066 20.5104C24.9909 19.6776 24.9925 18.8448 24.9942 17.9952ZM35.7692 5.07848C36.2628 5.09105 36.6924 4.66603 36.6958 4.1599C36.6992 3.62977 36.313 3.2436 35.7829 3.24703C35.2836 3.24931 34.8838 3.6332 34.8689 4.12448C34.8529 4.62147 35.2722 5.06477 35.7692 5.07848ZM10.2283 30.0287C10.2363 30.5543 9.84782 30.9599 9.33026 30.9644C8.8207 30.969 8.40254 30.5554 8.40483 30.0459C8.40711 29.5569 8.80014 29.1513 9.29142 29.1341C9.80898 29.1147 10.2203 29.5089 10.2283 30.0287ZM13.4902 39.7618C13.5176 37.535 11.6747 35.7733 9.39539 35.7653C7.08979 35.7173 5.2572 37.4596 5.23092 39.7835C5.20578 42.0046 7.05209 43.7766 9.32569 43.7903C11.6827 43.804 13.4627 42.0583 13.4902 39.7618ZM9.36568 37.5887C10.6476 37.5922 11.6301 38.5336 11.637 39.7664C11.6439 40.9923 10.667 41.9406 9.37939 41.9566C8.10206 41.9726 7.10693 41.0357 7.09093 39.8029C7.07494 38.5485 8.06436 37.5853 9.36568 37.5887Z"/>
<path fill-rule="evenodd" clip-rule="evenodd" d="M2.18718 45.4709C2.1849 46.0285 2.32885 46.4489 2.83384 46.7129C7.18454 46.7129 11.5341 46.7129 15.8848 46.714C16.3909 46.4524 16.5634 46.0365 16.5337 45.4755C16.51 45.0266 16.5153 44.576 16.5208 44.1057V44.1057V44.1056C16.5232 43.8961 16.5257 43.6826 16.5257 43.4636H17.1416H39.5886C39.6111 43.4636 39.6337 43.4637 39.6564 43.4639C39.6755 43.464 39.6947 43.4642 39.7139 43.4644H39.7141C39.8087 43.4654 39.9037 43.4664 39.9987 43.4624C40.7482 43.4316 41.067 43.1037 41.0681 42.353C41.0706 41.3867 41.0701 40.4197 41.0696 39.453C41.0694 39.0665 41.0693 38.68 41.0693 38.2937C41.0693 37.2883 40.7722 36.9866 39.7748 36.9855C38.406 36.9847 37.0373 36.985 35.6686 36.9852L33.6155 36.9855H33.0568V32.468C33.109 32.4605 33.1602 32.4534 33.2106 32.4464L33.2108 32.4464C33.3292 32.4299 33.4435 32.4141 33.5572 32.3949C34.0611 32.3092 34.3524 31.9413 34.3216 31.434C34.2896 30.9073 33.8863 30.5771 33.2339 30.576C29.1585 30.5714 25.082 30.5726 21.0067 30.5771C20.8433 30.5771 20.6719 30.608 20.5165 30.6605C20.1338 30.7896 19.8562 31.2101 19.9202 31.5848C19.9921 32.0053 20.2104 32.3149 20.6662 32.3903C20.8226 32.4157 20.9789 32.4393 21.1393 32.4634L21.1401 32.4636L21.1405 32.4636L21.1998 32.4726V36.9615H16.5246C16.5246 36.67 16.5248 36.3803 16.525 36.0919L16.525 36.0871C16.5254 35.3668 16.5259 34.6546 16.5235 33.9418C16.52 33.1672 16.1956 32.8439 15.4141 32.8359C15.0289 32.8319 14.6437 32.8329 14.2552 32.8339H14.255H14.2548C14.081 32.8343 13.9066 32.8347 13.7312 32.8347V8.70368H21.9001V15.3383C21.7798 15.3383 21.662 15.3363 21.546 15.3343C21.2875 15.33 21.038 15.3258 20.7896 15.344C20.3212 15.3771 19.9773 15.7073 19.9122 16.1346C19.8539 16.5196 20.0812 16.9538 20.4629 17.0886C20.669 17.1615 20.907 17.1651 21.1315 17.1685H21.1315L21.1335 17.1686C21.5946 17.1759 22.0564 17.1745 22.5334 17.1731H22.5336H22.5338C22.728 17.1726 22.9247 17.172 23.1249 17.172V17.7273C23.1249 18.056 23.1255 18.3847 23.1261 18.7133V18.7135V18.7137C23.1276 19.4801 23.129 20.246 23.1226 21.012C23.1181 21.533 23.318 21.9043 23.7819 22.1648C24.1461 22.3693 24.5041 22.5852 24.8622 22.8011C25.2062 23.0085 25.5502 23.216 25.9001 23.4136C26.1309 23.5438 26.204 23.6958 26.2017 23.9528C26.1891 25.1388 26.1926 26.3247 26.1971 27.5106C26.1994 28.1836 26.5456 28.5812 27.1123 28.5834C27.679 28.5857 28.0217 28.1938 28.0252 27.5163C28.0309 26.3304 28.0343 25.1445 28.0217 23.9585C28.0183 23.6992 28.0971 23.5472 28.3268 23.417C28.6664 23.2235 29.0013 23.0214 29.3363 22.8193C29.7034 22.5977 30.0705 22.3762 30.4439 22.1659C30.9226 21.8963 31.1202 21.5136 31.1122 20.972C31.1 20.1328 31.1032 19.2929 31.1063 18.4534C31.1073 18.198 31.1083 17.9426 31.1088 17.6873C31.1088 17.5818 31.1152 17.4768 31.1221 17.3621L31.1221 17.362L31.1222 17.3617C31.1258 17.3013 31.1297 17.2382 31.1328 17.1709C31.363 17.1709 31.5889 17.1718 31.8119 17.1727H31.8125H31.8131C32.3247 17.1749 32.8207 17.177 33.3161 17.1674C33.9365 17.1549 34.3067 16.8121 34.317 16.2797C34.3273 15.7324 33.9331 15.3543 33.315 15.3348C33.0876 15.3269 32.8596 15.3289 32.6337 15.3308L32.6335 15.3308C32.5338 15.3317 32.4345 15.3325 32.3359 15.3325V8.66712H32.8694L34.6372 8.66726H34.6398C36.4067 8.66747 38.1736 8.66769 39.9404 8.66598C40.7471 8.66598 41.0658 8.34264 41.067 7.52917C41.0681 5.41552 41.0681 3.30187 41.067 1.18822C41.067 0.293626 40.7665 0 39.8548 0H6.23054C5.32795 0 5.02519 0.300481 5.02405 1.19621V12.0524V12.6019C4.82911 12.6019 4.64086 12.6009 4.45722 12.5999H4.45704H4.45686C4.06264 12.5977 3.68962 12.5957 3.31713 12.6042C1.46968 12.6465 0.030113 13.9604 0.0152603 15.6902C-0.00832236 18.4739 0.000300964 21.2577 0.00892428 24.0415L0.0118328 24.9959C0.0141178 25.67 0.263186 26.271 0.674491 26.8023C1.38285 27.7163 2.34713 28.0636 3.46908 28.0625H4.98977V32.8336C4.82615 32.8336 4.66548 32.8334 4.50693 32.8332C4.11747 32.8327 3.74072 32.8323 3.36397 32.8347C2.49452 32.8405 2.19632 33.1432 2.19632 34.0218C2.196 35.095 2.19649 36.1683 2.19698 37.2416V37.2416V37.2417V37.2418V37.2419C2.19824 39.9849 2.1995 42.7282 2.18718 45.4709ZM39.2172 6.80825H6.86921V5.08648H7.45989L12.3764 5.08657C18.932 5.08675 25.4883 5.08693 32.0445 5.08419C32.2845 5.08419 32.5301 5.06477 32.7655 5.01678C33.2179 4.92424 33.4155 4.58834 33.4555 4.16675C33.4944 3.76687 33.1768 3.37727 32.754 3.28245C32.5347 3.23332 32.3039 3.21618 32.0788 3.21618C23.8847 3.21389 15.6894 3.21389 7.49416 3.21389H6.88063V1.85202H39.2172V6.80825ZM6.89206 32.8016V8.68883H8.40361V9.24523L8.40346 13.5434V13.5497C8.40325 17.8458 8.40304 22.1418 8.40475 26.4378L8.40495 26.4774C8.4058 26.6614 8.40667 26.8492 8.44931 27.025C8.55556 27.4592 8.98972 27.762 9.39874 27.7174C9.83746 27.6694 10.1802 27.3278 10.2236 26.8811C10.2383 26.7264 10.2379 26.57 10.2375 26.4133L10.2373 26.335V9.27836V8.70139H11.8471V32.8016H6.89206ZM16.5577 38.8889H39.2252V41.5761H16.5577V38.8889ZM14.6669 34.7039V44.8666H4.0472V34.7039H14.6669ZM23.1169 36.9421V32.452H31.1397V36.9421H23.1169ZM4.47395 14.4663L4.47468 14.4663H4.47472C4.64812 14.467 4.82366 14.4677 5.00234 14.4677C5.00234 18.4128 5.00234 22.2802 5.00348 26.1819C4.78871 26.1819 4.57554 26.1861 4.36376 26.1902H4.36372C3.88491 26.1996 3.41317 26.2089 2.94581 26.1693C2.26716 26.111 1.83414 25.4861 1.83186 24.6715C1.8277 23.4234 1.82838 22.1747 1.82906 20.9263C1.82932 20.4582 1.82957 19.9901 1.82957 19.5222C1.82957 19.1925 1.82939 18.8627 1.8292 18.533C1.82873 17.7083 1.82827 16.8835 1.83072 16.0592C1.83414 15.0081 2.34599 14.4837 3.38454 14.4688C3.74444 14.4634 4.10433 14.4648 4.47395 14.4663ZM25.4271 8.85897L25.4271 8.85892L25.4269 8.85879C25.3777 8.80721 25.3255 8.75242 25.2694 8.69225C26.5205 8.69225 27.7053 8.69225 28.7964 8.68997C28.7485 8.802 28.6973 8.91412 28.6457 9.02686L28.6457 9.02691C28.5138 9.31543 28.38 9.60802 28.2971 9.9136C28.2548 10.0667 28.409 10.3226 28.5439 10.4654C28.9689 10.9144 29.3779 10.7945 30.3959 9.94102V14.0998C30.3513 14.142 30.3056 14.1832 30.2599 14.2243C30.2239 14.1703 30.1901 14.1138 30.1564 14.0573L30.1564 14.0573C30.081 13.9312 30.0056 13.805 29.9046 13.7056C29.4602 13.2669 28.9095 13.2417 28.5301 13.6153C28.1668 13.973 28.1805 14.5122 28.5656 14.9647C28.6194 15.0288 28.6756 15.091 28.7433 15.166L28.7434 15.1662C28.7807 15.2074 28.8214 15.2525 28.8672 15.304H25.4991C25.543 15.2016 25.5911 15.0993 25.6395 14.9965L25.6395 14.9964L25.6396 14.9963C25.7623 14.7355 25.8866 14.4712 25.9481 14.1935C25.9858 14.0232 25.8258 13.7342 25.6681 13.6085C24.9781 13.0584 24.5288 13.4924 24.0582 13.9469L24.0582 13.9469L24.0582 13.947C23.9833 14.0192 23.908 14.092 23.831 14.1615V9.99586C23.8464 9.98272 23.8618 9.9693 23.8773 9.95587C23.8927 9.94245 23.9081 9.92903 23.9235 9.91589C23.9721 9.97201 24.0189 10.0301 24.0656 10.0881C24.1672 10.2143 24.2688 10.3403 24.3885 10.446C24.8033 10.8128 25.3494 10.8116 25.7001 10.4666C26.0509 10.1215 26.0532 9.58341 25.6979 9.15497C25.6164 9.05739 25.5282 8.96498 25.4271 8.85897ZM24.9942 17.9952C24.9947 17.7317 24.9952 17.4666 24.9952 17.1994H29.2339C29.2339 17.455 29.2343 17.7093 29.2346 17.9624V17.9633V17.9643C29.2358 18.8474 29.237 19.7172 29.2237 20.587C29.2225 20.6852 29.0877 20.8121 28.9837 20.876C28.4433 21.2119 27.8995 21.5455 27.3396 21.8472C27.2163 21.9134 26.9923 21.8997 26.8655 21.8312C26.3194 21.5353 25.7858 21.2142 25.2626 20.8795C25.1437 20.8041 25.0089 20.6372 25.0066 20.5104C24.9909 19.6776 24.9925 18.8448 24.9942 17.9952ZM35.7692 5.07848C36.2628 5.09105 36.6924 4.66603 36.6958 4.1599C36.6992 3.62977 36.313 3.2436 35.7829 3.24703C35.2836 3.24931 34.8838 3.6332 34.8689 4.12448C34.8529 4.62147 35.2722 5.06477 35.7692 5.07848ZM10.2283 30.0287C10.2363 30.5543 9.84782 30.9599 9.33026 30.9644C8.8207 30.969 8.40254 30.5554 8.40483 30.0459C8.40711 29.5569 8.80014 29.1513 9.29142 29.1341C9.80898 29.1147 10.2203 29.5089 10.2283 30.0287ZM13.4902 39.7618C13.5176 37.535 11.6747 35.7733 9.39539 35.7653C7.08979 35.7173 5.2572 37.4596 5.23092 39.7835C5.20578 42.0046 7.05209 43.7766 9.32569 43.7903C11.6827 43.804 13.4627 42.0583 13.4902 39.7618ZM9.36568 37.5887C10.6476 37.5922 11.6301 38.5336 11.637 39.7664C11.6439 40.9923 10.667 41.9406 9.37939 41.9566C8.10206 41.9726 7.10693 41.0357 7.09093 39.8029C7.07494 38.5485 8.06436 37.5853 9.36568 37.5887Z" fill-opacity="0.3"/>
</svg>
