<svg width="42" height="47" viewBox="0 0 42 47" xmlns="http://www.w3.org/2000/svg">
<path fill-rule="evenodd" clip-rule="evenodd" d="M41.07 41.384V45.0737C41.0665 45.0811 41.0622 45.0882 41.058 45.0954C41.0494 45.1096 41.0408 45.1238 41.0387 45.1401C40.9368 45.9266 40.5967 46.4054 40.088 46.6302C39.9147 46.7071 39.7214 46.7095 39.5369 46.7095C27.1075 46.713 14.6781 46.713 2.24953 46.713C2.23242 46.713 2.2153 46.7127 2.19819 46.7125C2.16396 46.7119 2.12973 46.7114 2.0955 46.713C1.44326 46.7456 0.72845 46.0034 0.708394 44.7464C0.692349 43.7409 0.693151 42.7343 0.707592 41.7289C0.726846 40.4228 1.47375 39.7121 2.08587 39.7494C2.11661 39.7511 2.14776 39.7451 2.17959 39.739C2.19262 39.7365 2.20577 39.734 2.21905 39.7319C2.22396 39.7113 2.22906 39.6918 2.234 39.6729C2.24357 39.6362 2.25253 39.6019 2.25836 39.5665L2.34716 39.0497L2.34717 39.0497L2.34718 39.0496L2.34719 39.0496C2.47736 38.2924 2.60746 37.5357 2.7349 36.7774C2.75415 36.662 2.76137 36.5385 2.76137 36.4185C2.76378 35.5715 2.76538 34.7234 2.76137 33.8752C2.75977 33.394 2.90016 33.0562 3.20903 32.8709C3.22733 32.8603 3.24392 32.8442 3.26014 32.8285C3.26882 32.8201 3.27738 32.8118 3.28605 32.8045L3.28061 32.741C3.27623 32.6886 3.27237 32.6423 3.26599 32.596C3.21098 32.1987 3.1558 31.8013 3.10061 31.4039L3.1003 31.4016C3.03406 30.9246 2.96779 30.4475 2.90177 29.9699C2.82635 29.4235 2.75576 28.8794 2.75736 28.3132C2.76338 25.8054 2.76263 23.2976 2.76187 20.7898C2.76162 19.9539 2.76137 19.118 2.76137 18.2821V17.9023H2.39474C2.00404 17.9023 1.66629 17.7089 1.38871 17.3104C1.10053 16.8971 0.814889 16.4801 0.52953 16.0635L0.42279 15.9077C0.261536 15.6724 0.150022 15.3939 0.0794235 15.0782C0.066588 15.0207 0.047335 14.9663 0.0280816 14.912L0.028079 14.912C0.0184519 14.8848 0.00882484 14.8576 0 14.83V7.06026C0.00717779 7.04013 0.0152719 7.02023 0.0233871 7.00027C0.0415759 6.95553 0.0598707 6.91054 0.0681919 6.8622C0.139593 6.46026 0.296033 6.13987 0.4974 5.85443C0.777388 5.45714 1.05577 5.05753 1.32774 4.64859C1.635 4.18723 2.00083 3.95073 2.44528 3.97519C2.51367 3.97916 2.58168 3.97826 2.65517 3.97728H2.65517H2.65518H2.65518L2.65521 3.97728C2.68948 3.97683 2.72493 3.97636 2.76217 3.97636V3.66063C2.76217 3.48469 2.76283 3.30876 2.76349 3.13286V3.13279V3.13271V3.13263V3.1326C2.76489 2.7588 2.76628 2.38516 2.76137 2.01207C2.74773 0.912257 3.39114 -0.00464254 4.1573 1.76866e-05C5.77497 0.0100037 7.39223 0.00810182 9.00966 0.00619972C9.65667 0.00543883 10.3037 0.00467791 10.9508 0.00467791C10.9765 0.00467791 11.0022 0.00467791 11.0278 0.00584297C11.6696 0.0384646 12.2031 0.701382 12.3235 1.61945C12.3385 1.73288 12.3527 1.84744 12.3684 1.97422L12.3692 1.98061H12.6267H31.8143C32.0231 1.98061 32.2318 1.98028 32.4405 1.97995L32.4407 1.97995C33.0146 1.97904 33.5884 1.97813 34.1626 1.98411C34.315 1.98527 34.4714 2.01091 34.6174 2.07032C35.2055 2.308 35.601 3.05829 35.6082 3.9484C35.6134 4.58747 35.6124 5.22595 35.6114 5.86469C35.611 6.12024 35.6106 6.37583 35.6106 6.63152V6.93211L35.6441 6.93973C35.6712 6.94599 35.6895 6.9502 35.7077 6.95191C36.4747 7.04745 36.9857 7.8257 37.0298 8.94066C37.0659 9.83267 37.1088 10.7247 37.1516 11.6167C37.1659 11.9142 37.1802 12.2117 37.1943 12.5092C37.2018 12.6632 37.2111 12.8167 37.2205 12.9721L37.2205 12.9724C37.2252 13.0497 37.2299 13.1274 37.2344 13.2059C37.2558 13.219 37.2765 13.2319 37.2966 13.2446C37.3376 13.2703 37.3767 13.2947 37.4165 13.3166C37.4992 13.3631 37.5822 13.4084 37.6652 13.4538L37.6653 13.4539C37.8281 13.5428 37.991 13.6319 38.1514 13.729C38.6247 14.0156 38.9159 14.5283 39.0098 15.2611C39.0313 15.431 39.031 15.6084 39.0307 15.784V15.7841L39.0307 15.846L39.0313 22.7059V22.7062V22.7064V22.7067C39.0316 27.2579 39.032 31.8094 39.0331 36.3603C39.0331 36.5257 39.0435 36.6958 39.0708 36.8566C39.2008 37.6363 39.3357 38.4142 39.4707 39.1927L39.5305 39.5374C39.5388 39.5851 39.5518 39.6317 39.5657 39.6815C39.5718 39.7034 39.5781 39.7259 39.5842 39.7494C39.6077 39.7494 39.6302 39.7488 39.6521 39.7482C39.6984 39.747 39.7418 39.7458 39.7848 39.7506C40.3576 39.8112 40.7523 40.2399 40.985 40.9925C41.0104 41.0776 41.0275 41.1668 41.0445 41.2561L41.0446 41.2563C41.0527 41.299 41.0609 41.3418 41.07 41.384ZM2.0955 44.6683C2.10217 44.6737 2.10777 44.6789 2.11273 44.6834C2.12267 44.6926 2.12999 44.6994 2.13802 44.7009C2.18214 44.7067 2.22707 44.7126 2.27199 44.7126L39.6636 44.6986C39.6658 44.6986 39.6681 44.6967 39.6704 44.6941C39.6721 44.6923 39.6738 44.69 39.6755 44.6878L39.6755 44.6878L39.6789 44.6834C39.6817 44.6801 39.6842 44.6759 39.6869 44.6714L39.6878 44.67C39.6895 44.6672 39.6913 44.6642 39.6933 44.6613C39.727 44.243 39.7134 41.9735 39.6733 41.7603C39.662 41.7591 39.6503 41.7575 39.6384 41.7557L39.6383 41.7557C39.6143 41.7523 39.5893 41.7487 39.5642 41.7487C38.8317 41.7358 38.3367 40.9797 38.2051 40.1269C38.1125 39.526 38.0075 38.9294 37.9024 38.3327L37.9024 38.3322L37.9023 38.3318L37.9022 38.3313C37.8344 37.9462 37.7666 37.5611 37.7021 37.1746C37.6676 36.9684 37.654 36.7517 37.6508 36.5397C37.6462 36.2237 37.6468 35.9078 37.6474 35.5921V35.5916C37.6478 35.4139 37.6481 35.2363 37.6476 35.0589C37.6476 35.0022 37.644 34.945 37.6402 34.8843L37.6402 34.8842V34.8841C37.6386 34.8588 37.6369 34.8328 37.6355 34.8061H31.889C31.8512 34.8958 31.8143 34.982 31.7782 35.0694C31.6165 35.4607 31.4545 35.8517 31.2925 36.2427L31.2924 36.243L31.2923 36.2432L31.2922 36.2435C30.8958 37.2003 30.4995 38.1571 30.1071 39.118C29.9258 39.563 29.6715 39.7669 29.3169 39.7657C23.7035 39.7622 18.0909 39.7622 12.4775 39.7657C12.1093 39.7657 11.8004 39.5316 11.6504 38.9595C11.401 38.0106 11.1389 37.069 10.8768 36.1273L10.8767 36.1271L10.8767 36.1269L10.8766 36.1268C10.7787 35.7749 10.6807 35.4229 10.5834 35.0706C10.565 35.0037 10.5445 34.9387 10.5258 34.8793L10.5257 34.8789L10.5148 34.8442L10.5048 34.8119H4.14206C4.14206 34.9254 4.14153 35.0374 4.141 35.1483C4.13982 35.3981 4.13866 35.6424 4.14366 35.8861C4.1565 36.5036 4.1196 37.1082 4.00407 37.7094C3.86199 38.4501 3.73844 39.1975 3.61478 39.9455L3.61478 39.9456L3.57727 40.1723C3.40559 41.2046 2.81432 41.7312 2.29205 41.7452C2.24759 41.746 2.20272 41.7527 2.15485 41.7599L2.15455 41.7599L2.15416 41.76L2.15365 41.76C2.13453 41.7629 2.11494 41.7658 2.0947 41.7685C2.0955 42.7471 2.0955 43.7106 2.0955 44.6683ZM17.1475 11.9255C17.2254 11.9255 17.301 11.9246 17.3749 11.9237C17.5364 11.9218 17.6903 11.9199 17.8438 11.9279C18.3188 11.9523 18.6292 12.6386 18.4632 13.2805C18.3621 13.6685 18.111 13.9224 17.8053 13.9294C17.4972 13.9364 17.1892 13.9364 16.8819 13.9283C16.7776 13.9259 16.7022 13.969 16.6292 14.0786C16.5103 14.2566 16.389 14.4313 16.2677 14.6058L16.2677 14.6059L16.2677 14.6059L16.2676 14.6059C16.1247 14.8117 15.9819 15.0174 15.843 15.2285C15.5317 15.7003 15.1595 15.9217 14.7086 15.9135C14.2105 15.9037 13.712 15.9059 13.2134 15.9081C12.9997 15.9091 12.7859 15.91 12.5722 15.91H12.3668V19.8538H20.5402V17.9034H20.3396C20.2902 17.9034 20.2408 17.9043 20.1913 17.9051C20.0739 17.907 19.9565 17.909 19.839 17.9C19.3882 17.865 19.0865 17.2417 19.2109 16.6149C19.2959 16.1873 19.5623 15.9019 19.892 15.8995C20.2759 15.8966 20.6594 15.8969 21.0431 15.8973H21.0431H21.0431H21.0431C21.2624 15.8974 21.4817 15.8976 21.7011 15.8972C21.753 15.8972 21.8044 15.8938 21.8603 15.8902L21.9145 15.8867V15.5477L21.9144 15.0448V15.0447V15.0445V15.0444C21.9142 14.5415 21.9141 14.0389 21.9153 13.5356C21.9169 12.8634 22.083 12.2984 22.4536 11.8801C22.9093 11.3663 23.3666 10.8537 23.8279 10.3504C24.3365 9.79465 25 9.80397 25.507 10.3644C25.7634 10.6476 26.0187 10.9323 26.2741 11.2171L26.2744 11.2175L26.275 11.2182L26.2755 11.2187C26.4671 11.4324 26.6587 11.6461 26.8508 11.8591C27.2238 12.2727 27.4043 12.8203 27.4051 13.4984C27.4051 14.2067 27.4051 14.9139 27.4059 15.6223C27.4059 15.6827 27.4078 15.7432 27.4098 15.8063V15.8064V15.8064V15.8065C27.4107 15.8357 27.4116 15.8655 27.4124 15.8961H28.1296C28.258 15.8961 28.3863 15.8953 28.5147 15.8945C28.8355 15.8926 29.1563 15.8907 29.4766 15.9007C29.8215 15.9112 30.1015 16.3027 30.1368 16.7885C30.1729 17.2848 29.9627 17.7333 29.6258 17.8615C29.5407 17.8941 29.4485 17.8988 29.3602 17.9011C29.2222 17.9053 29.0843 17.9047 28.9444 17.904H28.9443H28.944L28.8564 17.9036L28.785 17.9034V19.8503H32.8685V19.5031V9.24591L32.8685 9.17328C32.8683 9.07632 32.8682 8.97937 32.8701 8.88241C32.8886 7.96551 33.3402 7.18492 33.9596 7.00084C34.016 6.98399 34.0728 6.96966 34.1288 6.95552C34.158 6.94816 34.1869 6.94085 34.2155 6.93327C34.2556 6.41365 34.2396 4.19655 34.1954 4.00432C33.6932 3.9449 12.5072 3.97403 12.366 4.03461V5.95462H12.5826C12.7862 5.95462 12.9897 5.95481 13.1931 5.955H13.1932H13.1933H13.1934C13.7019 5.95548 14.2103 5.95595 14.719 5.95346C15.1514 5.95229 15.5197 6.16084 15.8229 6.61637C15.95 6.80705 16.0796 6.99392 16.2093 7.1808C16.3482 7.381 16.4871 7.58121 16.6228 7.78609C16.7062 7.91192 16.7921 7.95969 16.91 7.95503C17.1783 7.94528 17.4467 7.94862 17.7144 7.95194L17.7756 7.9527C17.8518 7.95386 17.9305 7.95852 18.0035 7.98765C18.3268 8.11697 18.5458 8.57833 18.5089 9.04319C18.4696 9.54882 18.1992 9.92281 17.8382 9.95193C17.7252 9.9615 17.6116 9.95991 17.4981 9.95832H17.4981H17.4981H17.498C17.4319 9.9574 17.3658 9.95647 17.2999 9.95776C17.2644 9.9586 17.2293 9.96559 17.1924 9.97292L17.1924 9.97293C17.1785 9.97569 17.1644 9.97851 17.1499 9.98106C17.1475 10.6312 17.1475 11.2603 17.1475 11.9255ZM37.6419 29.8348H4.29449C4.42927 30.8146 4.56092 31.774 4.69331 32.7387L4.69354 32.7404L4.69389 32.7429L4.69479 32.7495L4.69802 32.7731C4.71729 32.7745 4.73488 32.7761 4.75131 32.7776L4.75141 32.7776C4.78694 32.7808 4.81709 32.7836 4.84724 32.7836L37.6131 32.7731C37.6179 32.7731 37.6227 32.7614 37.6275 32.7556C37.6299 32.7527 37.6321 32.7495 37.6344 32.7461C37.6367 32.7428 37.6391 32.7393 37.6419 32.7358V29.8348ZM4.16693 2.01557C4.12762 2.37324 4.13644 19.6417 4.17415 19.8514H10.958V2.01557H4.16693ZM20.545 21.8914H4.1557V27.7983H20.5378V25.848H20.2979H15.4114L15.3753 25.8481L15.3169 25.8485C15.2328 25.8492 15.1488 25.8499 15.0648 25.8456C14.7174 25.827 14.4326 25.4518 14.3973 24.9718C14.3588 24.4429 14.5778 23.9897 14.934 23.8767C15.0271 23.8476 15.1242 23.8417 15.2196 23.8417C16.2376 23.8403 17.2558 23.8402 18.274 23.8401H18.274H18.274H18.2787C18.9585 23.84 19.6383 23.8399 20.318 23.8394C20.3683 23.8394 20.4187 23.8356 20.4703 23.8317L20.4707 23.8317C20.4946 23.8299 20.5188 23.8281 20.5434 23.8266C20.545 23.1714 20.545 22.55 20.545 21.8938V21.8914ZM30.2748 34.8084H12.0002L12.2045 35.5499C12.4088 36.2911 12.6098 37.0208 12.8105 37.7479H29.061L29.5108 36.659C29.7621 36.0507 30.016 35.4364 30.2748 34.8084ZM28.7794 23.8406H29.0337H33.402C33.4181 23.8406 33.4341 23.8403 33.4502 23.84C33.4983 23.8391 33.5464 23.8382 33.5946 23.8452C33.9532 23.8953 34.2147 24.2751 34.2452 24.7854C34.2717 25.2398 34.0534 25.6884 33.735 25.8084C33.6379 25.8445 33.532 25.8456 33.4301 25.8456C32.3284 25.8474 31.2267 25.8472 30.125 25.8469L29.0233 25.8468H28.7826V27.7948H37.6371V21.9008C37.3539 21.8472 28.9278 21.8646 28.7794 21.9194V23.8406ZM27.3666 27.7994C27.4067 27.5373 27.4035 18.1341 27.3642 17.9209H21.9434V27.7994H27.3666ZM34.2564 19.8491H37.6371V15.5931C37.5366 15.5362 37.4369 15.4809 37.338 15.426C37.1273 15.3091 36.92 15.1941 36.7153 15.0689C36.2284 14.7694 35.9347 14.237 35.8666 13.4704C35.838 13.1503 35.8245 12.8273 35.811 12.5042C35.8074 12.4181 35.8038 12.332 35.8 12.2459C35.7743 11.7056 35.7497 11.1648 35.7252 10.6242C35.7067 10.2171 35.6881 9.81002 35.6692 9.40319C35.6643 9.30471 35.6553 9.20677 35.6465 9.11121L35.6412 9.05368C35.6389 9.02862 35.6367 9.00375 35.6347 8.97911H34.2572C34.2564 12.6106 34.2564 16.2223 34.2564 19.8491ZM12.3644 13.8863C12.3703 13.8879 12.3757 13.8895 12.3808 13.8911L12.3955 13.8957C12.4119 13.901 12.4241 13.905 12.4366 13.905L12.9987 13.9057H12.9989H12.9992H12.9994C13.5614 13.9064 14.1236 13.907 14.6853 13.9096C14.7696 13.9096 14.8289 13.863 14.8867 13.7791C15.1434 13.4017 15.4001 13.0254 15.6625 12.6549C15.7331 12.5558 15.7596 12.451 15.7588 12.31C15.7555 11.3978 15.7555 10.4867 15.7588 9.57445C15.7596 9.42416 15.7315 9.31232 15.6553 9.2063C15.4017 8.85095 15.1522 8.48862 14.9076 8.12163C14.8305 8.00512 14.7495 7.95852 14.6388 7.95969C14.1735 7.96357 13.7078 7.96331 13.2422 7.96305C13.0095 7.96292 12.7767 7.96279 12.5441 7.96318C12.5057 7.96318 12.4672 7.96646 12.4254 7.97002L12.4254 7.97002L12.4253 7.97003C12.4061 7.97167 12.3862 7.97336 12.3652 7.97483C12.3644 9.9496 12.3644 11.9081 12.3644 13.8863ZM2.75174 15.8728V5.99656C2.73195 5.9952 2.71306 5.99433 2.69482 5.99349H2.69481H2.69481H2.6948C2.65095 5.99148 2.6109 5.98965 2.57124 5.98142C2.42523 5.95229 2.31933 6.03385 2.21824 6.18996C1.98559 6.5488 1.7425 6.89366 1.49862 7.23852C1.42882 7.33755 1.39994 7.44124 1.39994 7.58221C1.40235 9.81679 1.40235 12.0514 1.39914 14.2859C1.39914 14.4397 1.43203 14.5469 1.50664 14.6518C1.6635 14.8713 1.81714 15.0961 1.97069 15.3208C2.0339 15.4133 2.09709 15.5057 2.16048 15.5978C2.3811 15.9182 2.3811 15.9182 2.69559 15.8937C2.70412 15.893 2.71203 15.8895 2.72424 15.8842C2.73152 15.881 2.74034 15.8771 2.75174 15.8728ZM24.6678 11.9617C24.6584 11.9683 24.6502 11.9738 24.6428 11.9787C24.6268 11.9892 24.6149 11.9971 24.6045 12.0083C24.4822 12.1443 24.3601 12.2806 24.2379 12.417L24.2379 12.4171L24.2378 12.4172L24.2377 12.4173C23.9686 12.7177 23.6994 13.0183 23.4291 13.3155C23.3537 13.3982 23.3297 13.4914 23.3297 13.623C23.3281 14.0824 23.3243 14.5422 23.3206 15.0019C23.3187 15.2313 23.3168 15.4606 23.3152 15.6898C23.3147 15.7323 23.3179 15.7747 23.3213 15.819L23.3213 15.8191L23.3213 15.8193C23.3228 15.8394 23.3244 15.8598 23.3257 15.8809H26.0132L26.0154 15.8454L26.0169 15.8243L26.0169 15.8242C26.0192 15.7916 26.0212 15.7629 26.0212 15.7341C26.0215 15.5016 26.0214 15.269 26.0213 15.0363V15.0363V15.0363V15.0362V15.0353C26.0212 14.57 26.021 14.1044 26.0236 13.6393C26.0244 13.5019 25.99 13.4203 25.9161 13.3399C25.6379 13.0357 25.3615 12.7274 25.0852 12.4192L25.0851 12.4191L25.0847 12.4187L24.8315 12.1364C24.8023 12.1044 24.7726 12.0731 24.7436 12.0424C24.7176 12.015 24.6921 11.9881 24.6678 11.9617ZM5.5005 13.9096C5.5013 12.2646 6.42389 10.9248 7.55668 10.9259C8.68546 10.9271 9.61448 12.2727 9.61688 13.912C9.61929 15.5663 8.68947 16.9096 7.54545 16.9038C6.41106 16.8992 5.49969 15.564 5.5005 13.9096ZM7.55508 14.8964C7.92652 14.8964 8.22817 14.4689 8.23379 13.9329C8.2394 13.3888 7.93134 12.9356 7.55668 12.9345C7.17962 12.9333 6.87958 13.3772 6.88279 13.9318C6.88599 14.4758 7.17882 14.8964 7.55508 14.8964ZM7.3505 8.95993H7.35059H7.35067C7.41591 8.95962 7.48112 8.9593 7.54625 8.9593C7.61334 8.9593 7.68051 8.95962 7.7477 8.95993H7.74778H7.74792H7.74795C7.90484 8.96066 8.06189 8.9614 8.21855 8.95814C8.62208 8.94998 8.92373 8.52823 8.92854 7.97133C8.93336 7.40045 8.6301 6.96123 8.21935 6.9554C7.77811 6.94958 7.33606 6.94958 6.89402 6.9554C6.47925 6.96006 6.18242 7.39114 6.18643 7.97017C6.19124 8.53406 6.48727 8.94998 6.89322 8.95814C7.04538 8.9614 7.19794 8.96066 7.35035 8.95993H7.35037H7.3505ZM7.54385 5.98258C7.47698 5.98258 7.41004 5.98346 7.34306 5.98434C7.19228 5.98633 7.04135 5.98832 6.89081 5.98025C6.45278 5.95812 6.16396 5.5084 6.18803 4.90257C6.20809 4.40975 6.47765 3.99732 6.81941 3.98567C7.31199 3.96936 7.80538 3.96936 8.29797 3.98684C8.6277 3.99849 8.89806 4.40509 8.92694 4.88277C8.95662 5.37675 8.7336 5.83578 8.40547 5.94297C8.32525 5.96977 8.24101 5.97909 8.15838 5.98142C8.01515 5.98468 7.87152 5.98394 7.72805 5.98321C7.66661 5.9829 7.60519 5.98258 7.54385 5.98258ZM24.6552 25.8468C25.7936 25.8491 26.7122 24.5233 26.7154 22.8736C26.7186 21.2227 25.8048 19.877 24.6737 19.8689C23.5337 19.8607 22.5982 21.2099 22.599 22.8608C22.599 24.5047 23.5216 25.8433 24.6552 25.8468ZM24.668 21.8774C25.0379 21.8833 25.3323 22.319 25.3331 22.8596C25.3339 23.4165 25.0355 23.8441 24.6512 23.8394C24.2806 23.8347 23.9821 23.399 23.9821 22.8619C23.9813 22.3167 24.2918 21.8716 24.668 21.8774Z" fill="white"/>
<path fill-rule="evenodd" clip-rule="evenodd" d="M41.07 41.384V45.0737C41.0665 45.0811 41.0622 45.0882 41.058 45.0954C41.0494 45.1096 41.0408 45.1238 41.0387 45.1401C40.9368 45.9266 40.5967 46.4054 40.088 46.6302C39.9147 46.7071 39.7214 46.7095 39.5369 46.7095C27.1075 46.713 14.6781 46.713 2.24953 46.713C2.23242 46.713 2.2153 46.7127 2.19819 46.7125C2.16396 46.7119 2.12973 46.7114 2.0955 46.713C1.44326 46.7456 0.72845 46.0034 0.708394 44.7464C0.692349 43.7409 0.693151 42.7343 0.707592 41.7289C0.726846 40.4228 1.47375 39.7121 2.08587 39.7494C2.11661 39.7511 2.14776 39.7451 2.17959 39.739C2.19262 39.7365 2.20577 39.734 2.21905 39.7319C2.22396 39.7113 2.22906 39.6918 2.234 39.6729C2.24357 39.6362 2.25253 39.6019 2.25836 39.5665L2.34716 39.0497L2.34717 39.0497L2.34718 39.0496L2.34719 39.0496C2.47736 38.2924 2.60746 37.5357 2.7349 36.7774C2.75415 36.662 2.76137 36.5385 2.76137 36.4185C2.76378 35.5715 2.76538 34.7234 2.76137 33.8752C2.75977 33.394 2.90016 33.0562 3.20903 32.8709C3.22733 32.8603 3.24392 32.8442 3.26014 32.8285C3.26882 32.8201 3.27738 32.8118 3.28605 32.8045L3.28061 32.741C3.27623 32.6886 3.27237 32.6423 3.26599 32.596C3.21098 32.1987 3.1558 31.8013 3.10061 31.4039L3.1003 31.4016C3.03406 30.9246 2.96779 30.4475 2.90177 29.9699C2.82635 29.4235 2.75576 28.8794 2.75736 28.3132C2.76338 25.8054 2.76263 23.2976 2.76187 20.7898C2.76162 19.9539 2.76137 19.118 2.76137 18.2821V17.9023H2.39474C2.00404 17.9023 1.66629 17.7089 1.38871 17.3104C1.10053 16.8971 0.814889 16.4801 0.52953 16.0635L0.42279 15.9077C0.261536 15.6724 0.150022 15.3939 0.0794235 15.0782C0.066588 15.0207 0.047335 14.9663 0.0280816 14.912L0.028079 14.912C0.0184519 14.8848 0.00882484 14.8576 0 14.83V7.06026C0.00717779 7.04013 0.0152719 7.02023 0.0233871 7.00027C0.0415759 6.95553 0.0598707 6.91054 0.0681919 6.8622C0.139593 6.46026 0.296033 6.13987 0.4974 5.85443C0.777388 5.45714 1.05577 5.05753 1.32774 4.64859C1.635 4.18723 2.00083 3.95073 2.44528 3.97519C2.51367 3.97916 2.58168 3.97826 2.65517 3.97728H2.65517H2.65518H2.65518L2.65521 3.97728C2.68948 3.97683 2.72493 3.97636 2.76217 3.97636V3.66063C2.76217 3.48469 2.76283 3.30876 2.76349 3.13286V3.13279V3.13271V3.13263V3.1326C2.76489 2.7588 2.76628 2.38516 2.76137 2.01207C2.74773 0.912257 3.39114 -0.00464254 4.1573 1.76866e-05C5.77497 0.0100037 7.39223 0.00810182 9.00966 0.00619972C9.65667 0.00543883 10.3037 0.00467791 10.9508 0.00467791C10.9765 0.00467791 11.0022 0.00467791 11.0278 0.00584297C11.6696 0.0384646 12.2031 0.701382 12.3235 1.61945C12.3385 1.73288 12.3527 1.84744 12.3684 1.97422L12.3692 1.98061H12.6267H31.8143C32.0231 1.98061 32.2318 1.98028 32.4405 1.97995L32.4407 1.97995C33.0146 1.97904 33.5884 1.97813 34.1626 1.98411C34.315 1.98527 34.4714 2.01091 34.6174 2.07032C35.2055 2.308 35.601 3.05829 35.6082 3.9484C35.6134 4.58747 35.6124 5.22595 35.6114 5.86469C35.611 6.12024 35.6106 6.37583 35.6106 6.63152V6.93211L35.6441 6.93973C35.6712 6.94599 35.6895 6.9502 35.7077 6.95191C36.4747 7.04745 36.9857 7.8257 37.0298 8.94066C37.0659 9.83267 37.1088 10.7247 37.1516 11.6167C37.1659 11.9142 37.1802 12.2117 37.1943 12.5092C37.2018 12.6632 37.2111 12.8167 37.2205 12.9721L37.2205 12.9724C37.2252 13.0497 37.2299 13.1274 37.2344 13.2059C37.2558 13.219 37.2765 13.2319 37.2966 13.2446C37.3376 13.2703 37.3767 13.2947 37.4165 13.3166C37.4992 13.3631 37.5822 13.4084 37.6652 13.4538L37.6653 13.4539C37.8281 13.5428 37.991 13.6319 38.1514 13.729C38.6247 14.0156 38.9159 14.5283 39.0098 15.2611C39.0313 15.431 39.031 15.6084 39.0307 15.784V15.7841L39.0307 15.846L39.0313 22.7059V22.7062V22.7064V22.7067C39.0316 27.2579 39.032 31.8094 39.0331 36.3603C39.0331 36.5257 39.0435 36.6958 39.0708 36.8566C39.2008 37.6363 39.3357 38.4142 39.4707 39.1927L39.5305 39.5374C39.5388 39.5851 39.5518 39.6317 39.5657 39.6815C39.5718 39.7034 39.5781 39.7259 39.5842 39.7494C39.6077 39.7494 39.6302 39.7488 39.6521 39.7482C39.6984 39.747 39.7418 39.7458 39.7848 39.7506C40.3576 39.8112 40.7523 40.2399 40.985 40.9925C41.0104 41.0776 41.0275 41.1668 41.0445 41.2561L41.0446 41.2563C41.0527 41.299 41.0609 41.3418 41.07 41.384ZM2.0955 44.6683C2.10217 44.6737 2.10777 44.6789 2.11273 44.6834C2.12267 44.6926 2.12999 44.6994 2.13802 44.7009C2.18214 44.7067 2.22707 44.7126 2.27199 44.7126L39.6636 44.6986C39.6658 44.6986 39.6681 44.6967 39.6704 44.6941C39.6721 44.6923 39.6738 44.69 39.6755 44.6878L39.6755 44.6878L39.6789 44.6834C39.6817 44.6801 39.6842 44.6759 39.6869 44.6714L39.6878 44.67C39.6895 44.6672 39.6913 44.6642 39.6933 44.6613C39.727 44.243 39.7134 41.9735 39.6733 41.7603C39.662 41.7591 39.6503 41.7575 39.6384 41.7557L39.6383 41.7557C39.6143 41.7523 39.5893 41.7487 39.5642 41.7487C38.8317 41.7358 38.3367 40.9797 38.2051 40.1269C38.1125 39.526 38.0075 38.9294 37.9024 38.3327L37.9024 38.3322L37.9023 38.3318L37.9022 38.3313C37.8344 37.9462 37.7666 37.5611 37.7021 37.1746C37.6676 36.9684 37.654 36.7517 37.6508 36.5397C37.6462 36.2237 37.6468 35.9078 37.6474 35.5921V35.5916C37.6478 35.4139 37.6481 35.2363 37.6476 35.0589C37.6476 35.0022 37.644 34.945 37.6402 34.8843L37.6402 34.8842V34.8841C37.6386 34.8588 37.6369 34.8328 37.6355 34.8061H31.889C31.8512 34.8958 31.8143 34.982 31.7782 35.0694C31.6165 35.4607 31.4545 35.8517 31.2925 36.2427L31.2924 36.243L31.2923 36.2432L31.2922 36.2435C30.8958 37.2003 30.4995 38.1571 30.1071 39.118C29.9258 39.563 29.6715 39.7669 29.3169 39.7657C23.7035 39.7622 18.0909 39.7622 12.4775 39.7657C12.1093 39.7657 11.8004 39.5316 11.6504 38.9595C11.401 38.0106 11.1389 37.069 10.8768 36.1273L10.8767 36.1271L10.8767 36.1269L10.8766 36.1268C10.7787 35.7749 10.6807 35.4229 10.5834 35.0706C10.565 35.0037 10.5445 34.9387 10.5258 34.8793L10.5257 34.8789L10.5148 34.8442L10.5048 34.8119H4.14206C4.14206 34.9254 4.14153 35.0374 4.141 35.1483C4.13982 35.3981 4.13866 35.6424 4.14366 35.8861C4.1565 36.5036 4.1196 37.1082 4.00407 37.7094C3.86199 38.4501 3.73844 39.1975 3.61478 39.9455L3.61478 39.9456L3.57727 40.1723C3.40559 41.2046 2.81432 41.7312 2.29205 41.7452C2.24759 41.746 2.20272 41.7527 2.15485 41.7599L2.15455 41.7599L2.15416 41.76L2.15365 41.76C2.13453 41.7629 2.11494 41.7658 2.0947 41.7685C2.0955 42.7471 2.0955 43.7106 2.0955 44.6683ZM17.1475 11.9255C17.2254 11.9255 17.301 11.9246 17.3749 11.9237C17.5364 11.9218 17.6903 11.9199 17.8438 11.9279C18.3188 11.9523 18.6292 12.6386 18.4632 13.2805C18.3621 13.6685 18.111 13.9224 17.8053 13.9294C17.4972 13.9364 17.1892 13.9364 16.8819 13.9283C16.7776 13.9259 16.7022 13.969 16.6292 14.0786C16.5103 14.2566 16.389 14.4313 16.2677 14.6058L16.2677 14.6059L16.2677 14.6059L16.2676 14.6059C16.1247 14.8117 15.9819 15.0174 15.843 15.2285C15.5317 15.7003 15.1595 15.9217 14.7086 15.9135C14.2105 15.9037 13.712 15.9059 13.2134 15.9081C12.9997 15.9091 12.7859 15.91 12.5722 15.91H12.3668V19.8538H20.5402V17.9034H20.3396C20.2902 17.9034 20.2408 17.9043 20.1913 17.9051C20.0739 17.907 19.9565 17.909 19.839 17.9C19.3882 17.865 19.0865 17.2417 19.2109 16.6149C19.2959 16.1873 19.5623 15.9019 19.892 15.8995C20.2759 15.8966 20.6594 15.8969 21.0431 15.8973H21.0431H21.0431H21.0431C21.2624 15.8974 21.4817 15.8976 21.7011 15.8972C21.753 15.8972 21.8044 15.8938 21.8603 15.8902L21.9145 15.8867V15.5477L21.9144 15.0448V15.0447V15.0445V15.0444C21.9142 14.5415 21.9141 14.0389 21.9153 13.5356C21.9169 12.8634 22.083 12.2984 22.4536 11.8801C22.9093 11.3663 23.3666 10.8537 23.8279 10.3504C24.3365 9.79465 25 9.80397 25.507 10.3644C25.7634 10.6476 26.0187 10.9323 26.2741 11.2171L26.2744 11.2175L26.275 11.2182L26.2755 11.2187C26.4671 11.4324 26.6587 11.6461 26.8508 11.8591C27.2238 12.2727 27.4043 12.8203 27.4051 13.4984C27.4051 14.2067 27.4051 14.9139 27.4059 15.6223C27.4059 15.6827 27.4078 15.7432 27.4098 15.8063V15.8064V15.8064V15.8065C27.4107 15.8357 27.4116 15.8655 27.4124 15.8961H28.1296C28.258 15.8961 28.3863 15.8953 28.5147 15.8945C28.8355 15.8926 29.1563 15.8907 29.4766 15.9007C29.8215 15.9112 30.1015 16.3027 30.1368 16.7885C30.1729 17.2848 29.9627 17.7333 29.6258 17.8615C29.5407 17.8941 29.4485 17.8988 29.3602 17.9011C29.2222 17.9053 29.0843 17.9047 28.9444 17.904H28.9443H28.944L28.8564 17.9036L28.785 17.9034V19.8503H32.8685V19.5031V9.24591L32.8685 9.17328C32.8683 9.07632 32.8682 8.97937 32.8701 8.88241C32.8886 7.96551 33.3402 7.18492 33.9596 7.00084C34.016 6.98399 34.0728 6.96966 34.1288 6.95552C34.158 6.94816 34.1869 6.94085 34.2155 6.93327C34.2556 6.41365 34.2396 4.19655 34.1954 4.00432C33.6932 3.9449 12.5072 3.97403 12.366 4.03461V5.95462H12.5826C12.7862 5.95462 12.9897 5.95481 13.1931 5.955H13.1932H13.1933H13.1934C13.7019 5.95548 14.2103 5.95595 14.719 5.95346C15.1514 5.95229 15.5197 6.16084 15.8229 6.61637C15.95 6.80705 16.0796 6.99392 16.2093 7.1808C16.3482 7.381 16.4871 7.58121 16.6228 7.78609C16.7062 7.91192 16.7921 7.95969 16.91 7.95503C17.1783 7.94528 17.4467 7.94862 17.7144 7.95194L17.7756 7.9527C17.8518 7.95386 17.9305 7.95852 18.0035 7.98765C18.3268 8.11697 18.5458 8.57833 18.5089 9.04319C18.4696 9.54882 18.1992 9.92281 17.8382 9.95193C17.7252 9.9615 17.6116 9.95991 17.4981 9.95832H17.4981H17.4981H17.498C17.4319 9.9574 17.3658 9.95647 17.2999 9.95776C17.2644 9.9586 17.2293 9.96559 17.1924 9.97292L17.1924 9.97293C17.1785 9.97569 17.1644 9.97851 17.1499 9.98106C17.1475 10.6312 17.1475 11.2603 17.1475 11.9255ZM37.6419 29.8348H4.29449C4.42927 30.8146 4.56092 31.774 4.69331 32.7387L4.69354 32.7404L4.69389 32.7429L4.69479 32.7495L4.69802 32.7731C4.71729 32.7745 4.73488 32.7761 4.75131 32.7776L4.75141 32.7776C4.78694 32.7808 4.81709 32.7836 4.84724 32.7836L37.6131 32.7731C37.6179 32.7731 37.6227 32.7614 37.6275 32.7556C37.6299 32.7527 37.6321 32.7495 37.6344 32.7461C37.6367 32.7428 37.6391 32.7393 37.6419 32.7358V29.8348ZM4.16693 2.01557C4.12762 2.37324 4.13644 19.6417 4.17415 19.8514H10.958V2.01557H4.16693ZM20.545 21.8914H4.1557V27.7983H20.5378V25.848H20.2979H15.4114L15.3753 25.8481L15.3169 25.8485C15.2328 25.8492 15.1488 25.8499 15.0648 25.8456C14.7174 25.827 14.4326 25.4518 14.3973 24.9718C14.3588 24.4429 14.5778 23.9897 14.934 23.8767C15.0271 23.8476 15.1242 23.8417 15.2196 23.8417C16.2376 23.8403 17.2558 23.8402 18.274 23.8401H18.274H18.274H18.2787C18.9585 23.84 19.6383 23.8399 20.318 23.8394C20.3683 23.8394 20.4187 23.8356 20.4703 23.8317L20.4707 23.8317C20.4946 23.8299 20.5188 23.8281 20.5434 23.8266C20.545 23.1714 20.545 22.55 20.545 21.8938V21.8914ZM30.2748 34.8084H12.0002L12.2045 35.5499C12.4088 36.2911 12.6098 37.0208 12.8105 37.7479H29.061L29.5108 36.659C29.7621 36.0507 30.016 35.4364 30.2748 34.8084ZM28.7794 23.8406H29.0337H33.402C33.4181 23.8406 33.4341 23.8403 33.4502 23.84C33.4983 23.8391 33.5464 23.8382 33.5946 23.8452C33.9532 23.8953 34.2147 24.2751 34.2452 24.7854C34.2717 25.2398 34.0534 25.6884 33.735 25.8084C33.6379 25.8445 33.532 25.8456 33.4301 25.8456C32.3284 25.8474 31.2267 25.8472 30.125 25.8469L29.0233 25.8468H28.7826V27.7948H37.6371V21.9008C37.3539 21.8472 28.9278 21.8646 28.7794 21.9194V23.8406ZM27.3666 27.7994C27.4067 27.5373 27.4035 18.1341 27.3642 17.9209H21.9434V27.7994H27.3666ZM34.2564 19.8491H37.6371V15.5931C37.5366 15.5362 37.4369 15.4809 37.338 15.426C37.1273 15.3091 36.92 15.1941 36.7153 15.0689C36.2284 14.7694 35.9347 14.237 35.8666 13.4704C35.838 13.1503 35.8245 12.8273 35.811 12.5042C35.8074 12.4181 35.8038 12.332 35.8 12.2459C35.7743 11.7056 35.7497 11.1648 35.7252 10.6242C35.7067 10.2171 35.6881 9.81002 35.6692 9.40319C35.6643 9.30471 35.6553 9.20677 35.6465 9.11121L35.6412 9.05368C35.6389 9.02862 35.6367 9.00375 35.6347 8.97911H34.2572C34.2564 12.6106 34.2564 16.2223 34.2564 19.8491ZM12.3644 13.8863C12.3703 13.8879 12.3757 13.8895 12.3808 13.8911L12.3955 13.8957C12.4119 13.901 12.4241 13.905 12.4366 13.905L12.9987 13.9057H12.9989H12.9992H12.9994C13.5614 13.9064 14.1236 13.907 14.6853 13.9096C14.7696 13.9096 14.8289 13.863 14.8867 13.7791C15.1434 13.4017 15.4001 13.0254 15.6625 12.6549C15.7331 12.5558 15.7596 12.451 15.7588 12.31C15.7555 11.3978 15.7555 10.4867 15.7588 9.57445C15.7596 9.42416 15.7315 9.31232 15.6553 9.2063C15.4017 8.85095 15.1522 8.48862 14.9076 8.12163C14.8305 8.00512 14.7495 7.95852 14.6388 7.95969C14.1735 7.96357 13.7078 7.96331 13.2422 7.96305C13.0095 7.96292 12.7767 7.96279 12.5441 7.96318C12.5057 7.96318 12.4672 7.96646 12.4254 7.97002L12.4254 7.97002L12.4253 7.97003C12.4061 7.97167 12.3862 7.97336 12.3652 7.97483C12.3644 9.9496 12.3644 11.9081 12.3644 13.8863ZM2.75174 15.8728V5.99656C2.73195 5.9952 2.71306 5.99433 2.69482 5.99349H2.69481H2.69481H2.6948C2.65095 5.99148 2.6109 5.98965 2.57124 5.98142C2.42523 5.95229 2.31933 6.03385 2.21824 6.18996C1.98559 6.5488 1.7425 6.89366 1.49862 7.23852C1.42882 7.33755 1.39994 7.44124 1.39994 7.58221C1.40235 9.81679 1.40235 12.0514 1.39914 14.2859C1.39914 14.4397 1.43203 14.5469 1.50664 14.6518C1.6635 14.8713 1.81714 15.0961 1.97069 15.3208C2.0339 15.4133 2.09709 15.5057 2.16048 15.5978C2.3811 15.9182 2.3811 15.9182 2.69559 15.8937C2.70412 15.893 2.71203 15.8895 2.72424 15.8842C2.73152 15.881 2.74034 15.8771 2.75174 15.8728ZM24.6678 11.9617C24.6584 11.9683 24.6502 11.9738 24.6428 11.9787C24.6268 11.9892 24.6149 11.9971 24.6045 12.0083C24.4822 12.1443 24.3601 12.2806 24.2379 12.417L24.2379 12.4171L24.2378 12.4172L24.2377 12.4173C23.9686 12.7177 23.6994 13.0183 23.4291 13.3155C23.3537 13.3982 23.3297 13.4914 23.3297 13.623C23.3281 14.0824 23.3243 14.5422 23.3206 15.0019C23.3187 15.2313 23.3168 15.4606 23.3152 15.6898C23.3147 15.7323 23.3179 15.7747 23.3213 15.819L23.3213 15.8191L23.3213 15.8193C23.3228 15.8394 23.3244 15.8598 23.3257 15.8809H26.0132L26.0154 15.8454L26.0169 15.8243L26.0169 15.8242C26.0192 15.7916 26.0212 15.7629 26.0212 15.7341C26.0215 15.5016 26.0214 15.269 26.0213 15.0363V15.0363V15.0363V15.0362V15.0353C26.0212 14.57 26.021 14.1044 26.0236 13.6393C26.0244 13.5019 25.99 13.4203 25.9161 13.3399C25.6379 13.0357 25.3615 12.7274 25.0852 12.4192L25.0851 12.4191L25.0847 12.4187L24.8315 12.1364C24.8023 12.1044 24.7726 12.0731 24.7436 12.0424C24.7176 12.015 24.6921 11.9881 24.6678 11.9617ZM5.5005 13.9096C5.5013 12.2646 6.42389 10.9248 7.55668 10.9259C8.68546 10.9271 9.61448 12.2727 9.61688 13.912C9.61929 15.5663 8.68947 16.9096 7.54545 16.9038C6.41106 16.8992 5.49969 15.564 5.5005 13.9096ZM7.55508 14.8964C7.92652 14.8964 8.22817 14.4689 8.23379 13.9329C8.2394 13.3888 7.93134 12.9356 7.55668 12.9345C7.17962 12.9333 6.87958 13.3772 6.88279 13.9318C6.88599 14.4758 7.17882 14.8964 7.55508 14.8964ZM7.3505 8.95993H7.35059H7.35067C7.41591 8.95962 7.48112 8.9593 7.54625 8.9593C7.61334 8.9593 7.68051 8.95962 7.7477 8.95993H7.74778H7.74792H7.74795C7.90484 8.96066 8.06189 8.9614 8.21855 8.95814C8.62208 8.94998 8.92373 8.52823 8.92854 7.97133C8.93336 7.40045 8.6301 6.96123 8.21935 6.9554C7.77811 6.94958 7.33606 6.94958 6.89402 6.9554C6.47925 6.96006 6.18242 7.39114 6.18643 7.97017C6.19124 8.53406 6.48727 8.94998 6.89322 8.95814C7.04538 8.9614 7.19794 8.96066 7.35035 8.95993H7.35037H7.3505ZM7.54385 5.98258C7.47698 5.98258 7.41004 5.98346 7.34306 5.98434C7.19228 5.98633 7.04135 5.98832 6.89081 5.98025C6.45278 5.95812 6.16396 5.5084 6.18803 4.90257C6.20809 4.40975 6.47765 3.99732 6.81941 3.98567C7.31199 3.96936 7.80538 3.96936 8.29797 3.98684C8.6277 3.99849 8.89806 4.40509 8.92694 4.88277C8.95662 5.37675 8.7336 5.83578 8.40547 5.94297C8.32525 5.96977 8.24101 5.97909 8.15838 5.98142C8.01515 5.98468 7.87152 5.98394 7.72805 5.98321C7.66661 5.9829 7.60519 5.98258 7.54385 5.98258ZM24.6552 25.8468C25.7936 25.8491 26.7122 24.5233 26.7154 22.8736C26.7186 21.2227 25.8048 19.877 24.6737 19.8689C23.5337 19.8607 22.5982 21.2099 22.599 22.8608C22.599 24.5047 23.5216 25.8433 24.6552 25.8468ZM24.668 21.8774C25.0379 21.8833 25.3323 22.319 25.3331 22.8596C25.3339 23.4165 25.0355 23.8441 24.6512 23.8394C24.2806 23.8347 23.9821 23.399 23.9821 22.8619C23.9813 22.3167 24.2918 21.8716 24.668 21.8774Z"  />
</svg>
