<svg width="42" height="47" viewBox="0 0 42 47" xmlns="http://www.w3.org/2000/svg">
<path fill-rule="evenodd" clip-rule="evenodd" d="M14.9951 4.51277H14.9952H14.9953C15.3021 4.51199 15.5877 4.51126 15.8727 4.51474C16.669 4.52354 17.2109 5.14742 17.2175 6.06186C17.2208 6.54864 17.2219 7.03542 17.2175 7.5222C17.2076 8.40017 16.6568 9.02279 15.8815 9.03286C15.5862 9.03636 15.2903 9.03559 14.9879 9.0348L14.9872 9.0348C14.8561 9.03446 14.7238 9.03411 14.5898 9.03411V12.0328H15.8826V14.8038C16.2433 14.6858 16.599 14.5697 16.9513 14.4548L16.9522 14.4545L16.9523 14.4544C17.6885 14.2143 18.4096 13.979 19.1297 13.7409C19.7319 13.5422 20.3335 13.3415 20.935 13.1407C22.3785 12.659 23.8218 12.1774 25.2722 11.7246C25.7135 11.5862 25.9125 11.3963 25.8318 10.8806C25.8229 10.8207 25.8279 10.7586 25.8342 10.681V10.6809V10.6809C25.8373 10.6427 25.8407 10.6008 25.8428 10.5536H28.4562V9.0555H27.1755C27.1755 8.76396 27.1686 8.47655 27.1618 8.19257V8.19254C27.1466 7.56129 27.1318 6.94704 27.1943 6.34236C27.3038 5.27824 28.1698 4.51851 29.1176 4.51599C30.8971 4.51096 32.6777 4.5097 34.4571 4.51599C35.5576 4.51977 36.4169 5.50213 36.4257 6.75619C36.4295 7.26234 36.4286 7.76909 36.4277 8.29281V8.29508V8.29736V8.29965C36.4273 8.53509 36.4268 8.77396 36.4268 9.01776H35.1273V10.5322H37.7374V18.6213C38.3379 18.1521 38.9219 17.9496 39.5788 18.1471C40.0522 18.2892 40.4271 18.5886 40.708 19.0389C41.2532 19.9118 41.1747 21.1093 40.5255 21.8954C39.821 22.7482 38.861 22.8287 37.7706 22.0904V27.1154H32.462V31.6272H30.4834V34.6183H29.153V31.6587H27.1744V27.1305H25.844V22.0652C25.176 22.5772 24.5069 22.7809 23.788 22.4539C23.0636 22.1243 22.6677 21.4753 22.5095 20.5671L19.2195 21.5015L19.2185 21.5018L19.0698 21.544L15.9147 22.4401V30.1204H17.1943V34.6322H15.9224V39.1528H23.8919C24.0656 38.3855 24.383 37.6887 24.9238 37.1428C25.5453 36.5151 26.262 36.1655 27.1003 36.1655L30.1771 36.1652C32.2283 36.1649 34.2794 36.1646 36.3306 36.1655C37.9376 36.1655 39.1486 37.1831 39.633 38.9327C39.6467 38.9819 39.6577 39.0323 39.6708 39.092L39.6708 39.0921C39.6768 39.1194 39.6832 39.1486 39.6905 39.1805H41.0376V43.6936H38.2848L38.2134 44.0149C38.0139 44.9123 37.8188 45.7901 37.6202 46.686H31.262C31.0453 45.7086 30.8274 44.7275 30.604 43.7238H15.761C15.7168 43.9214 15.673 44.1196 15.6291 44.318L15.6289 44.3189C15.4736 45.0205 15.3176 45.7257 15.1461 46.4256C15.1173 46.5413 14.9614 46.6998 14.864 46.701C13.1578 46.7148 11.4524 46.7143 9.72604 46.7138H9.72521L8.74921 46.7136L8.61821 46.1243L8.61788 46.1228C8.44113 45.3276 8.26452 44.533 8.08011 43.7062H5.31854V39.1956H7.92306V34.6661H6.63573V33.1505C6.4416 33.1505 6.24959 33.1502 6.05926 33.1499H6.05701H6.05477H6.05253C5.36695 33.1488 4.70295 33.1478 4.03895 33.1605C3.96619 33.1615 3.89052 33.2505 3.822 33.3311C3.80615 33.3497 3.79069 33.3679 3.77573 33.3844L3.69151 33.4781C3.40968 33.7914 3.12743 34.1053 2.85889 34.4347C2.76268 34.5529 2.65982 34.7227 2.6565 34.8712C2.64257 35.545 2.64443 36.2189 2.64633 36.9071L2.64633 36.9073C2.64699 37.1478 2.64766 37.39 2.64766 37.6346H1.32383C1.32383 37.3863 1.32304 37.1375 1.32226 36.8885V36.8884V36.8884V36.8883C1.32024 36.2507 1.31822 35.6113 1.32936 34.9718C1.33489 34.6737 1.26742 34.5077 1.0208 34.3529C0.357223 33.9353 0 33.2737 0 32.3945C0 31.5153 0.357223 30.8537 1.0208 30.4373C1.26853 30.2814 1.33489 30.1153 1.32936 29.8185C1.31826 29.1901 1.32023 28.5611 1.32224 27.9203C1.32303 27.6671 1.32383 27.412 1.32383 27.1544H2.64766C2.64766 27.4092 2.64826 27.6638 2.64887 27.9181C2.65043 28.5714 2.65199 29.2232 2.64323 29.8751C2.63991 30.1405 2.72507 30.2663 2.9164 30.426C3.12121 30.5972 3.29713 30.8131 3.47329 31.0293C3.56634 31.1435 3.65945 31.2578 3.75693 31.3656C3.77059 31.3808 3.78467 31.3969 3.7991 31.4135C3.8863 31.5134 3.98608 31.6278 4.08097 31.631C4.71088 31.6483 5.34143 31.6465 5.99223 31.6447H5.99251H5.99279H5.99307C6.19555 31.6441 6.39998 31.6436 6.60698 31.6436V30.143H7.93744V12.068H9.248V9.03537C9.11571 9.03537 8.98474 9.03572 8.85465 9.03606H8.85444C8.55392 9.03685 8.25811 9.03762 7.96177 9.03411C7.18649 9.02405 6.63352 8.40143 6.62467 7.52472C6.61914 7.02285 6.61914 6.51971 6.62467 6.01784C6.63462 5.14742 7.19202 4.52354 7.96619 4.51474C8.25196 4.51126 8.53773 4.51199 8.84503 4.51277H8.84504H8.84506H8.84508C8.98254 4.51312 9.12432 4.51348 9.27233 4.51348C9.27233 4.29659 9.27214 4.08082 9.27196 3.86586V3.8649V3.86393V3.86297V3.86275V3.86252V3.8623C9.27151 3.32551 9.27107 2.79374 9.27343 2.26197C9.27786 1.20413 9.8253 0.264534 10.7333 0.102274C11.5207 -0.0386031 12.3602 -0.032314 13.1476 0.111078C14.0113 0.269565 14.5621 1.21545 14.5687 2.21165C14.5717 2.7078 14.5707 3.20449 14.5697 3.71595V3.71636V3.71677V3.71718C14.5693 3.97814 14.5687 4.24294 14.5687 4.51348C14.7163 4.51348 14.8577 4.51312 14.9948 4.51277H14.9949H14.9951ZM14.5411 30.1141V13.5937H9.29223V30.1141H14.5411ZM39.7204 40.7176H6.65564V42.1678H39.7204V40.7176ZM27.1811 12.0667V19.5684H28.517C29.0413 17.7333 30.1705 16.6339 31.5551 16.5698C32.2939 16.5358 32.9774 16.7106 33.5967 17.171C34.3664 17.7446 34.8332 18.5672 35.051 19.5596H36.4025V12.0655C33.3224 12.0667 30.2678 12.0667 27.1811 12.0667ZM25.8119 18.5848V13.1283C22.4907 14.2239 19.1994 15.3094 15.9081 16.3937V20.8112C15.9402 20.8095 15.9709 20.8096 16.0003 20.8098H16.0003C16.0589 20.81 16.1124 20.8103 16.1624 20.7961C18.3743 20.1697 20.5862 19.542 22.7971 18.9093C22.901 18.8791 23.005 18.8213 23.0901 18.7483C24.1176 17.8779 24.6783 17.8351 25.8119 18.5848ZM27.1755 21.1105V25.5821H36.3948V21.1105H35.051C34.5876 22.9105 33.4142 24.0564 32.0041 24.1016C30.2888 24.1582 29.1707 23.2023 28.5071 21.1093C28.0736 21.1105 27.6367 21.1105 27.1755 21.1105ZM14.5522 34.69H9.3044V39.1541H14.5522V34.69ZM38.276 39.1629C37.9011 38.2107 37.2994 37.6912 36.4622 37.6824C33.3479 37.6535 30.2335 37.661 27.1202 37.6774C26.2709 37.6824 25.5376 38.3377 25.364 39.1616C29.6355 39.1629 33.9038 39.1629 38.2367 39.1629H38.276ZM31.7785 18.0792C30.7102 18.088 29.8044 19.1244 29.8044 20.337C29.8044 21.5483 30.7113 22.586 31.7785 22.596C32.8546 22.6048 33.7902 21.5357 33.7737 20.3131C33.7582 19.0967 32.8424 18.0704 31.7785 18.0792ZM7.96509 7.49453H15.8616V6.043H7.96509V7.49453ZM7.96619 31.6599V33.124H15.8671V31.6599H7.96619ZM28.4794 7.49579H35.0997C35.0997 7.41544 35.1008 7.33833 35.1019 7.26346V7.26325V7.26305C35.1043 7.10484 35.1065 6.95664 35.0975 6.80901C35.0687 6.33984 34.8232 6.03042 34.4151 6.0279C32.6644 6.01407 30.9137 6.01407 29.1618 6.0279C28.7537 6.03168 28.5093 6.34236 28.4806 6.81027C28.4724 6.9547 28.4747 7.10025 28.477 7.25553V7.25554V7.25556V7.25557C28.4782 7.33288 28.4794 7.4126 28.4794 7.49579ZM10.6216 9.04292V12.0152H13.2128V9.04292H10.6216ZM31.1017 30.1254V27.1544H28.5126V30.1254H31.1017ZM13.2449 4.49461C13.2449 4.26449 13.2458 4.03903 13.2467 3.81689C13.2488 3.30928 13.2508 2.81898 13.2416 2.32989C13.2316 1.82927 12.9806 1.52739 12.5559 1.50601C12.1301 1.48463 11.701 1.48588 11.2752 1.50601C10.9169 1.52236 10.6415 1.7538 10.6205 2.15631C10.5932 2.70269 10.5989 3.25095 10.6046 3.80241C10.607 4.03297 10.6094 4.26409 10.6094 4.49587C11.4994 4.49461 12.3485 4.49461 13.2439 4.49461H13.2449ZM14.3597 43.7175H9.48025L9.55754 44.0792C9.63783 44.4551 9.71568 44.8196 9.79544 45.1891H14.0467C14.1496 44.7011 14.2513 44.2244 14.3597 43.7175ZM36.8792 43.7175H31.9997C32.1081 44.2231 32.2098 44.7011 32.3105 45.1766H36.5695C36.6312 44.8846 36.6911 44.6031 36.7512 44.32L36.7521 44.316L36.8792 43.7175ZM33.7582 9.06682H29.8353V10.5184H33.7582V9.06682ZM25.1605 20.342C25.1627 19.9546 24.8375 19.5848 24.498 19.5898C24.1729 19.5948 23.8632 19.937 23.8477 20.3093C23.8322 20.6929 24.1474 21.074 24.4903 21.0854C24.8276 21.0967 25.1583 20.7307 25.1605 20.342ZM39.7325 20.3596C39.7447 19.9747 39.4262 19.5974 39.0844 19.5911C38.7615 19.5848 38.4452 19.9206 38.4198 20.2942C38.3943 20.6753 38.7029 21.0652 39.0457 21.0866C39.3797 21.1068 39.7204 20.747 39.7325 20.3596ZM2.64213 32.4184C2.6554 32.0335 2.33799 31.6549 1.99514 31.6474C1.6722 31.6398 1.35479 31.9744 1.32936 32.348C1.30281 32.7278 1.61138 33.119 1.95422 33.1429C2.28822 33.1656 2.62885 32.8071 2.64213 32.4184ZM29.7845 13.581V15.0288H28.5038V13.581H29.7845ZM32.431 15.0261V13.5834H31.1559V15.0261H32.431ZM33.8024 13.5647H35.0676V15.0288H33.8024V13.5647ZM31.7818 21.0901C32.1678 21.0939 32.4576 20.7631 32.4509 20.3229C32.4454 19.9028 32.1678 19.5896 31.7984 19.5858C31.4091 19.5808 31.1227 19.909 31.1293 20.3518C31.1348 20.7719 31.4124 21.0851 31.7818 21.0901Z" />
<path fill-rule="evenodd" clip-rule="evenodd" d="M14.9951 4.51277H14.9952H14.9953C15.3021 4.51199 15.5877 4.51126 15.8727 4.51474C16.669 4.52354 17.2109 5.14742 17.2175 6.06186C17.2208 6.54864 17.2219 7.03542 17.2175 7.5222C17.2076 8.40017 16.6568 9.02279 15.8815 9.03286C15.5862 9.03636 15.2903 9.03559 14.9879 9.0348L14.9872 9.0348C14.8561 9.03446 14.7238 9.03411 14.5898 9.03411V12.0328H15.8826V14.8038C16.2433 14.6858 16.599 14.5697 16.9513 14.4548L16.9522 14.4545L16.9523 14.4544C17.6885 14.2143 18.4096 13.979 19.1297 13.7409C19.7319 13.5422 20.3335 13.3415 20.935 13.1407C22.3785 12.659 23.8218 12.1774 25.2722 11.7246C25.7135 11.5862 25.9125 11.3963 25.8318 10.8806C25.8229 10.8207 25.8279 10.7586 25.8342 10.681V10.6809V10.6809C25.8373 10.6427 25.8407 10.6008 25.8428 10.5536H28.4562V9.0555H27.1755C27.1755 8.76396 27.1686 8.47655 27.1618 8.19257V8.19254C27.1466 7.56129 27.1318 6.94704 27.1943 6.34236C27.3038 5.27824 28.1698 4.51851 29.1176 4.51599C30.8971 4.51096 32.6777 4.5097 34.4571 4.51599C35.5576 4.51977 36.4169 5.50213 36.4257 6.75619C36.4295 7.26234 36.4286 7.76909 36.4277 8.29281V8.29508V8.29736V8.29965C36.4273 8.53509 36.4268 8.77396 36.4268 9.01776H35.1273V10.5322H37.7374V18.6213C38.3379 18.1521 38.9219 17.9496 39.5788 18.1471C40.0522 18.2892 40.4271 18.5886 40.708 19.0389C41.2532 19.9118 41.1747 21.1093 40.5255 21.8954C39.821 22.7482 38.861 22.8287 37.7706 22.0904V27.1154H32.462V31.6272H30.4834V34.6183H29.153V31.6587H27.1744V27.1305H25.844V22.0652C25.176 22.5772 24.5069 22.7809 23.788 22.4539C23.0636 22.1243 22.6677 21.4753 22.5095 20.5671L19.2195 21.5015L19.2185 21.5018L19.0698 21.544L15.9147 22.4401V30.1204H17.1943V34.6322H15.9224V39.1528H23.8919C24.0656 38.3855 24.383 37.6887 24.9238 37.1428C25.5453 36.5151 26.262 36.1655 27.1003 36.1655L30.1771 36.1652C32.2283 36.1649 34.2794 36.1646 36.3306 36.1655C37.9376 36.1655 39.1486 37.1831 39.633 38.9327C39.6467 38.9819 39.6577 39.0323 39.6708 39.092L39.6708 39.0921C39.6768 39.1194 39.6832 39.1486 39.6905 39.1805H41.0376V43.6936H38.2848L38.2134 44.0149C38.0139 44.9123 37.8188 45.7901 37.6202 46.686H31.262C31.0453 45.7086 30.8274 44.7275 30.604 43.7238H15.761C15.7168 43.9214 15.673 44.1196 15.6291 44.318L15.6289 44.3189C15.4736 45.0205 15.3176 45.7257 15.1461 46.4256C15.1173 46.5413 14.9614 46.6998 14.864 46.701C13.1578 46.7148 11.4524 46.7143 9.72604 46.7138H9.72521L8.74921 46.7136L8.61821 46.1243L8.61788 46.1228C8.44113 45.3276 8.26452 44.533 8.08011 43.7062H5.31854V39.1956H7.92306V34.6661H6.63573V33.1505C6.4416 33.1505 6.24959 33.1502 6.05926 33.1499H6.05701H6.05477H6.05253C5.36695 33.1488 4.70295 33.1478 4.03895 33.1605C3.96619 33.1615 3.89052 33.2505 3.822 33.3311C3.80615 33.3497 3.79069 33.3679 3.77573 33.3844L3.69151 33.4781C3.40968 33.7914 3.12743 34.1053 2.85889 34.4347C2.76268 34.5529 2.65982 34.7227 2.6565 34.8712C2.64257 35.545 2.64443 36.2189 2.64633 36.9071L2.64633 36.9073C2.64699 37.1478 2.64766 37.39 2.64766 37.6346H1.32383C1.32383 37.3863 1.32304 37.1375 1.32226 36.8885V36.8884V36.8884V36.8883C1.32024 36.2507 1.31822 35.6113 1.32936 34.9718C1.33489 34.6737 1.26742 34.5077 1.0208 34.3529C0.357223 33.9353 0 33.2737 0 32.3945C0 31.5153 0.357223 30.8537 1.0208 30.4373C1.26853 30.2814 1.33489 30.1153 1.32936 29.8185C1.31826 29.1901 1.32023 28.5611 1.32224 27.9203C1.32303 27.6671 1.32383 27.412 1.32383 27.1544H2.64766C2.64766 27.4092 2.64826 27.6638 2.64887 27.9181C2.65043 28.5714 2.65199 29.2232 2.64323 29.8751C2.63991 30.1405 2.72507 30.2663 2.9164 30.426C3.12121 30.5972 3.29713 30.8131 3.47329 31.0293C3.56634 31.1435 3.65945 31.2578 3.75693 31.3656C3.77059 31.3808 3.78467 31.3969 3.7991 31.4135C3.8863 31.5134 3.98608 31.6278 4.08097 31.631C4.71088 31.6483 5.34143 31.6465 5.99223 31.6447H5.99251H5.99279H5.99307C6.19555 31.6441 6.39998 31.6436 6.60698 31.6436V30.143H7.93744V12.068H9.248V9.03537C9.11571 9.03537 8.98474 9.03572 8.85465 9.03606H8.85444C8.55392 9.03685 8.25811 9.03762 7.96177 9.03411C7.18649 9.02405 6.63352 8.40143 6.62467 7.52472C6.61914 7.02285 6.61914 6.51971 6.62467 6.01784C6.63462 5.14742 7.19202 4.52354 7.96619 4.51474C8.25196 4.51126 8.53773 4.51199 8.84503 4.51277H8.84504H8.84506H8.84508C8.98254 4.51312 9.12432 4.51348 9.27233 4.51348C9.27233 4.29659 9.27214 4.08082 9.27196 3.86586V3.8649V3.86393V3.86297V3.86275V3.86252V3.8623C9.27151 3.32551 9.27107 2.79374 9.27343 2.26197C9.27786 1.20413 9.8253 0.264534 10.7333 0.102274C11.5207 -0.0386031 12.3602 -0.032314 13.1476 0.111078C14.0113 0.269565 14.5621 1.21545 14.5687 2.21165C14.5717 2.7078 14.5707 3.20449 14.5697 3.71595V3.71636V3.71677V3.71718C14.5693 3.97814 14.5687 4.24294 14.5687 4.51348C14.7163 4.51348 14.8577 4.51312 14.9948 4.51277H14.9949H14.9951ZM14.5411 30.1141V13.5937H9.29223V30.1141H14.5411ZM39.7204 40.7176H6.65564V42.1678H39.7204V40.7176ZM27.1811 12.0667V19.5684H28.517C29.0413 17.7333 30.1705 16.6339 31.5551 16.5698C32.2939 16.5358 32.9774 16.7106 33.5967 17.171C34.3664 17.7446 34.8332 18.5672 35.051 19.5596H36.4025V12.0655C33.3224 12.0667 30.2678 12.0667 27.1811 12.0667ZM25.8119 18.5848V13.1283C22.4907 14.2239 19.1994 15.3094 15.9081 16.3937V20.8112C15.9402 20.8095 15.9709 20.8096 16.0003 20.8098H16.0003C16.0589 20.81 16.1124 20.8103 16.1624 20.7961C18.3743 20.1697 20.5862 19.542 22.7971 18.9093C22.901 18.8791 23.005 18.8213 23.0901 18.7483C24.1176 17.8779 24.6783 17.8351 25.8119 18.5848ZM27.1755 21.1105V25.5821H36.3948V21.1105H35.051C34.5876 22.9105 33.4142 24.0564 32.0041 24.1016C30.2888 24.1582 29.1707 23.2023 28.5071 21.1093C28.0736 21.1105 27.6367 21.1105 27.1755 21.1105ZM14.5522 34.69H9.3044V39.1541H14.5522V34.69ZM38.276 39.1629C37.9011 38.2107 37.2994 37.6912 36.4622 37.6824C33.3479 37.6535 30.2335 37.661 27.1202 37.6774C26.2709 37.6824 25.5376 38.3377 25.364 39.1616C29.6355 39.1629 33.9038 39.1629 38.2367 39.1629H38.276ZM31.7785 18.0792C30.7102 18.088 29.8044 19.1244 29.8044 20.337C29.8044 21.5483 30.7113 22.586 31.7785 22.596C32.8546 22.6048 33.7902 21.5357 33.7737 20.3131C33.7582 19.0967 32.8424 18.0704 31.7785 18.0792ZM7.96509 7.49453H15.8616V6.043H7.96509V7.49453ZM7.96619 31.6599V33.124H15.8671V31.6599H7.96619ZM28.4794 7.49579H35.0997C35.0997 7.41544 35.1008 7.33833 35.1019 7.26346V7.26325V7.26305C35.1043 7.10484 35.1065 6.95664 35.0975 6.80901C35.0687 6.33984 34.8232 6.03042 34.4151 6.0279C32.6644 6.01407 30.9137 6.01407 29.1618 6.0279C28.7537 6.03168 28.5093 6.34236 28.4806 6.81027C28.4724 6.9547 28.4747 7.10025 28.477 7.25553V7.25554V7.25556V7.25557C28.4782 7.33288 28.4794 7.4126 28.4794 7.49579ZM10.6216 9.04292V12.0152H13.2128V9.04292H10.6216ZM31.1017 30.1254V27.1544H28.5126V30.1254H31.1017ZM13.2449 4.49461C13.2449 4.26449 13.2458 4.03903 13.2467 3.81689C13.2488 3.30928 13.2508 2.81898 13.2416 2.32989C13.2316 1.82927 12.9806 1.52739 12.5559 1.50601C12.1301 1.48463 11.701 1.48588 11.2752 1.50601C10.9169 1.52236 10.6415 1.7538 10.6205 2.15631C10.5932 2.70269 10.5989 3.25095 10.6046 3.80241C10.607 4.03297 10.6094 4.26409 10.6094 4.49587C11.4994 4.49461 12.3485 4.49461 13.2439 4.49461H13.2449ZM14.3597 43.7175H9.48025L9.55754 44.0792C9.63783 44.4551 9.71568 44.8196 9.79544 45.1891H14.0467C14.1496 44.7011 14.2513 44.2244 14.3597 43.7175ZM36.8792 43.7175H31.9997C32.1081 44.2231 32.2098 44.7011 32.3105 45.1766H36.5695C36.6312 44.8846 36.6911 44.6031 36.7512 44.32L36.7521 44.316L36.8792 43.7175ZM33.7582 9.06682H29.8353V10.5184H33.7582V9.06682ZM25.1605 20.342C25.1627 19.9546 24.8375 19.5848 24.498 19.5898C24.1729 19.5948 23.8632 19.937 23.8477 20.3093C23.8322 20.6929 24.1474 21.074 24.4903 21.0854C24.8276 21.0967 25.1583 20.7307 25.1605 20.342ZM39.7325 20.3596C39.7447 19.9747 39.4262 19.5974 39.0844 19.5911C38.7615 19.5848 38.4452 19.9206 38.4198 20.2942C38.3943 20.6753 38.7029 21.0652 39.0457 21.0866C39.3797 21.1068 39.7204 20.747 39.7325 20.3596ZM2.64213 32.4184C2.6554 32.0335 2.33799 31.6549 1.99514 31.6474C1.6722 31.6398 1.35479 31.9744 1.32936 32.348C1.30281 32.7278 1.61138 33.119 1.95422 33.1429C2.28822 33.1656 2.62885 32.8071 2.64213 32.4184ZM29.7845 13.581V15.0288H28.5038V13.581H29.7845ZM32.431 15.0261V13.5834H31.1559V15.0261H32.431ZM33.8024 13.5647H35.0676V15.0288H33.8024V13.5647ZM31.7818 21.0901C32.1678 21.0939 32.4576 20.7631 32.4509 20.3229C32.4454 19.9028 32.1678 19.5896 31.7984 19.5858C31.4091 19.5808 31.1227 19.909 31.1293 20.3518C31.1348 20.7719 31.4124 21.0851 31.7818 21.0901Z" fill-opacity="0.3"/>
</svg>
