<svg width="42" height="47" viewBox="0 0 42 47" xmlns="http://www.w3.org/2000/svg">
<path fill-rule="evenodd" clip-rule="evenodd" d="M4.27051 44.2233V29.8182H3.26942C3.03737 29.8182 2.80532 29.8163 2.57329 29.8143H2.57322C2.04482 29.81 1.51653 29.8056 0.988609 29.824C0.347607 29.847 -0.0147644 29.2338 0.000461269 28.3549C0.0200568 27.1873 0.0160723 26.018 0.0120888 24.8489C0.0103462 24.3376 0.00860373 23.8262 0.00883541 23.3151C0.00959669 22.3361 0.299646 21.8955 0.943694 21.8932H1.31216V21.3433C1.31216 20.3284 1.31235 19.3134 1.31255 18.2985C1.31322 14.8477 1.31389 11.3968 1.30683 7.94601C1.30607 7.45364 1.39818 7.06366 1.60982 6.69784C2.78753 4.66857 3.96067 2.6347 5.12619 0.59047C5.36143 0.177483 5.63017 -0.00887864 5.99406 0.00032441C6.59631 0.0155174 7.19856 0.0131533 7.80102 0.0107884C8.11091 0.00957192 8.42085 0.00835526 8.73088 0.00952746C9.31022 0.0118282 9.6292 0.489236 9.633 1.36583C9.63563 2.05578 9.635 2.74628 9.63435 3.45165V3.45182V3.45214C9.63406 3.7698 9.63377 4.09048 9.63377 4.41549H11.3368C12.1688 4.41549 12.4018 4.74795 12.4406 5.99036C12.4416 6.0269 12.4463 6.06293 12.4518 6.10513C12.4546 6.1267 12.4576 6.14989 12.4604 6.17557H28.6347L28.6345 6.0215C28.6343 5.91989 28.6342 5.81913 28.6347 5.71887C28.6415 4.93891 28.9735 4.42469 29.4904 4.41779C29.9327 4.41138 30.3749 4.41278 30.8321 4.41422H30.8321C31.032 4.41485 31.2347 4.41549 31.4415 4.41549V3.93693C31.4415 3.68691 31.441 3.43679 31.4405 3.18663V3.18651C31.4393 2.5608 31.4381 1.93483 31.4446 1.30946C31.453 0.489236 31.7826 0.0106778 32.3254 0.00952746C32.6704 0.008262 33.0154 0.00869793 33.3604 0.00913381C33.9563 0.00988666 34.552 0.0106394 35.1475 0.00262517C35.4543 -0.000825971 35.6964 0.153325 35.8973 0.504191C37.0971 2.59788 38.3 4.68813 39.5051 6.77377C39.6901 7.09357 39.7662 7.44444 39.7654 7.87123C39.7607 11.3809 39.761 14.8905 39.7614 18.4001L39.7616 21.2686V21.8921C39.821 21.8921 39.8785 21.8915 39.9347 21.8909H39.9347C40.0544 21.8897 40.1682 21.8885 40.2816 21.8932C40.7193 21.9105 41.0627 22.4086 41.0649 23.0655C41.071 24.9176 41.0726 26.7697 41.0642 28.623C41.0611 29.3477 40.6919 29.8136 40.1377 29.817C39.4853 29.8209 38.8333 29.8196 38.1811 29.8183H38.1803C37.8541 29.8177 37.5278 29.817 37.2014 29.817H36.8132V44.2233H37.1124L38.1293 44.223H38.1294C38.8072 44.2228 39.4848 44.2225 40.1628 44.2233C40.7011 44.2244 41.0649 44.7168 41.0672 45.4427C41.0695 46.1893 40.7231 46.6759 40.1773 46.6793C39.5389 46.683 38.9005 46.6873 38.2621 46.6917C36.506 46.7036 34.7497 46.7155 32.9938 46.7138C23.9246 46.706 14.8559 46.693 5.78678 46.68H5.78373L1.23755 46.6736C1.20294 46.6736 1.16834 46.6739 1.13374 46.6742C1.01612 46.6752 0.898602 46.6762 0.78154 46.6655C0.322485 46.6253 0.00502898 46.1133 0.00959669 45.4335C0.0141644 44.7559 0.364356 44.229 0.83483 44.2244C1.54381 44.2181 2.25243 44.2188 2.96118 44.2195H2.96122C3.28823 44.2199 3.61528 44.2202 3.9424 44.2198C4.04517 44.2233 4.14794 44.2233 4.27051 44.2233ZM9.88727 44.2026H31.1774C31.1654 44.1503 31.1546 44.1014 31.1444 44.0549L31.1444 44.0547C31.1253 43.9682 31.1081 43.89 31.0883 43.8137C30.9342 43.2189 30.7797 42.6242 30.6253 42.0296L30.6249 42.0281C30.1845 40.3323 29.744 38.6364 29.3107 36.9368C29.2285 36.6147 29.1204 36.5226 28.8958 36.5238C26.7163 36.536 24.5362 36.5338 22.3566 36.5315L21.541 36.5307C20.9092 36.5295 20.5978 36.0544 20.5978 35.1007C20.5974 34.3076 20.5974 33.5141 20.5974 32.7207V32.7088C20.5974 31.9123 20.5974 31.1159 20.597 30.3198V29.8412C20.565 29.8382 20.5374 29.835 20.5125 29.832C20.4697 29.8269 20.4349 29.8228 20.3999 29.8228C19.8246 29.8225 19.2493 29.8226 18.674 29.8227C17.0637 29.823 15.4535 29.8232 13.8437 29.8148C13.6534 29.8136 13.5856 29.9344 13.5239 30.1737C12.8809 32.661 12.2354 35.146 11.5898 37.6312L11.5893 37.6333C11.3041 38.7313 11.0188 39.8292 10.7338 40.9274C10.5387 41.678 10.3446 42.4302 10.1465 43.1982L10.1462 43.1994L9.88727 44.2026ZM9.64518 21.8714H31.4233V16.9178C31.2226 16.9178 31.0237 16.9181 30.8262 16.9185C30.3697 16.9192 29.9201 16.9199 29.4706 16.9167C28.9658 16.9132 28.6415 16.4163 28.6339 15.6467C28.6329 15.5463 28.6332 15.446 28.6336 15.3457V15.3453C28.6338 15.295 28.6339 15.2448 28.6339 15.1946H12.4391L12.4393 15.3549V15.355C12.4394 15.4528 12.4396 15.5443 12.4391 15.6363C12.4323 16.437 12.1201 16.9075 11.5849 16.9178C11.432 16.921 11.279 16.9203 11.1261 16.9196C11.0605 16.9193 10.995 16.919 10.9295 16.919H9.64595C9.64518 18.5951 9.64518 20.2137 9.64518 21.8714ZM1.64331 27.3092H39.4343V24.3447H1.64331V27.3092ZM2.95044 8.96409V21.861H7.97873V8.96409H2.95044ZM33.0913 21.8553H38.1249V8.9687H33.0913V21.8553ZM28.6248 8.67535H12.4551V12.6603H28.6248V8.67535ZM11.862 29.8516H5.9225V44.2233C6.10948 44.2233 6.29462 44.2224 6.47844 44.2215H6.47915C6.95291 44.2192 7.41786 44.2169 7.88281 44.2302C8.07313 44.2359 8.15687 44.1542 8.22843 43.8759C8.89701 41.2746 9.57202 38.6773 10.247 36.0799L10.247 36.0799C10.4721 35.214 10.6971 34.3482 10.9219 33.4822C11.1682 32.5349 11.4131 31.5876 11.6585 30.6387L11.862 29.8516ZM30.9801 36.6398C30.987 36.669 30.9934 36.6964 30.9995 36.7224C31.0213 36.8148 31.0388 36.8893 31.0579 36.9632L32.7456 43.4767L32.7464 43.4798C32.8548 43.8989 32.9022 44.0821 33.0198 44.1622C33.1112 44.2244 33.2449 44.2244 33.4826 44.2244H35.1551V29.847H32.8545C32.8527 29.8972 32.8506 29.9447 32.8486 29.9903L32.8486 29.9908C32.8445 30.0829 32.8408 30.1674 32.8408 30.2519C32.8405 30.8598 32.8405 31.4677 32.8406 32.0755C32.8406 33.0897 32.8407 34.1039 32.8393 35.118C32.8377 36.0372 32.5119 36.5284 31.909 36.5318C31.7101 36.5326 31.5113 36.5323 31.2995 36.5321H31.2994L30.9543 36.5318C30.9636 36.5706 30.9721 36.6063 30.9801 36.6398ZM31.1934 29.8562H22.2445V34.032H31.1934V29.8562ZM37.105 6.40958V6.40953C37.1047 6.38484 37.1046 6.36663 37.0987 6.35618C36.3838 5.10802 35.669 3.861 34.9495 2.61974C34.9039 2.54152 34.8255 2.46099 34.7615 2.45984C34.3438 2.45021 33.9261 2.45124 33.5034 2.45228H33.5033C33.3706 2.45261 33.2373 2.45294 33.1034 2.45294V6.45511H37.1063C37.1052 6.43817 37.1051 6.42293 37.105 6.40958ZM7.98634 2.44949C7.84006 2.44949 7.696 2.44767 7.55357 2.44587C7.189 2.44128 6.83513 2.43682 6.48204 2.46329C6.33283 2.47479 6.1486 2.59213 6.04963 2.75664C5.65432 3.41121 5.27112 4.08343 4.88796 4.75557L4.88794 4.75562L4.8879 4.75569C4.76268 4.97535 4.63747 5.195 4.51184 5.41402C4.37773 5.64853 4.2444 5.88421 4.102 6.13589L4.10194 6.136L3.9226 6.45281H7.98634V2.44949ZM9.65813 6.90721V14.4503H10.8008V6.90721H9.65813ZM30.276 6.90606V14.448H31.4179V6.90606H30.276ZM24.6905 33.1753C24.6301 33.1753 24.5697 33.1768 24.5094 33.1783C24.3795 33.1815 24.2497 33.1848 24.1203 33.173C23.6422 33.1293 23.3171 32.6116 23.3217 31.9191C23.3263 31.2392 23.6673 30.7227 24.1446 30.702C24.4956 30.6859 24.8481 30.6893 25.1998 30.702C25.6878 30.7204 26.0539 31.2599 26.0501 31.934C26.0463 32.622 25.6885 33.15 25.2036 33.1753C25.0894 33.1799 24.9753 33.1784 24.8613 33.1768H24.8611C24.8041 33.1761 24.7473 33.1753 24.6905 33.1753ZM27.9821 33.1754C28.033 33.1741 28.0838 33.1727 28.1345 33.1727V33.1738C28.1856 33.1738 28.2368 33.1747 28.2879 33.1755C28.3977 33.1772 28.5076 33.179 28.6172 33.1727C29.0808 33.1462 29.4211 32.6585 29.4371 32.0051C29.4538 31.3045 29.1516 30.7592 28.6796 30.7097C28.3317 30.6729 27.9785 30.6752 27.6298 30.7097C27.1685 30.7546 26.8594 31.2803 26.8624 31.9544C26.8647 32.6136 27.1905 33.1221 27.6519 33.1704C27.7613 33.1814 27.8718 33.1784 27.9821 33.1754Z" />
<path fill-rule="evenodd" clip-rule="evenodd" d="M4.27051 44.2233V29.8182H3.26942C3.03737 29.8182 2.80532 29.8163 2.57329 29.8143H2.57322C2.04482 29.81 1.51653 29.8056 0.988609 29.824C0.347607 29.847 -0.0147644 29.2338 0.000461269 28.3549C0.0200568 27.1873 0.0160723 26.018 0.0120888 24.8489C0.0103462 24.3376 0.00860373 23.8262 0.00883541 23.3151C0.00959669 22.3361 0.299646 21.8955 0.943694 21.8932H1.31216V21.3433C1.31216 20.3284 1.31235 19.3134 1.31255 18.2985C1.31322 14.8477 1.31389 11.3968 1.30683 7.94601C1.30607 7.45364 1.39818 7.06366 1.60982 6.69784C2.78753 4.66857 3.96067 2.6347 5.12619 0.59047C5.36143 0.177483 5.63017 -0.00887864 5.99406 0.00032441C6.59631 0.0155174 7.19856 0.0131533 7.80102 0.0107884C8.11091 0.00957192 8.42085 0.00835526 8.73088 0.00952746C9.31022 0.0118282 9.6292 0.489236 9.633 1.36583C9.63563 2.05578 9.635 2.74628 9.63435 3.45165V3.45182V3.45214C9.63406 3.7698 9.63377 4.09048 9.63377 4.41549H11.3368C12.1688 4.41549 12.4018 4.74795 12.4406 5.99036C12.4416 6.0269 12.4463 6.06293 12.4518 6.10513C12.4546 6.1267 12.4576 6.14989 12.4604 6.17557H28.6347L28.6345 6.0215C28.6343 5.91989 28.6342 5.81913 28.6347 5.71887C28.6415 4.93891 28.9735 4.42469 29.4904 4.41779C29.9327 4.41138 30.3749 4.41278 30.8321 4.41422H30.8321C31.032 4.41485 31.2347 4.41549 31.4415 4.41549V3.93693C31.4415 3.68691 31.441 3.43679 31.4405 3.18663V3.18651C31.4393 2.5608 31.4381 1.93483 31.4446 1.30946C31.453 0.489236 31.7826 0.0106778 32.3254 0.00952746C32.6704 0.008262 33.0154 0.00869793 33.3604 0.00913381C33.9563 0.00988666 34.552 0.0106394 35.1475 0.00262517C35.4543 -0.000825971 35.6964 0.153325 35.8973 0.504191C37.0971 2.59788 38.3 4.68813 39.5051 6.77377C39.6901 7.09357 39.7662 7.44444 39.7654 7.87123C39.7607 11.3809 39.761 14.8905 39.7614 18.4001L39.7616 21.2686V21.8921C39.821 21.8921 39.8785 21.8915 39.9347 21.8909H39.9347C40.0544 21.8897 40.1682 21.8885 40.2816 21.8932C40.7193 21.9105 41.0627 22.4086 41.0649 23.0655C41.071 24.9176 41.0726 26.7697 41.0642 28.623C41.0611 29.3477 40.6919 29.8136 40.1377 29.817C39.4853 29.8209 38.8333 29.8196 38.1811 29.8183H38.1803C37.8541 29.8177 37.5278 29.817 37.2014 29.817H36.8132V44.2233H37.1124L38.1293 44.223H38.1294C38.8072 44.2228 39.4848 44.2225 40.1628 44.2233C40.7011 44.2244 41.0649 44.7168 41.0672 45.4427C41.0695 46.1893 40.7231 46.6759 40.1773 46.6793C39.5389 46.683 38.9005 46.6873 38.2621 46.6917C36.506 46.7036 34.7497 46.7155 32.9938 46.7138C23.9246 46.706 14.8559 46.693 5.78678 46.68H5.78373L1.23755 46.6736C1.20294 46.6736 1.16834 46.6739 1.13374 46.6742C1.01612 46.6752 0.898602 46.6762 0.78154 46.6655C0.322485 46.6253 0.00502898 46.1133 0.00959669 45.4335C0.0141644 44.7559 0.364356 44.229 0.83483 44.2244C1.54381 44.2181 2.25243 44.2188 2.96118 44.2195H2.96122C3.28823 44.2199 3.61528 44.2202 3.9424 44.2198C4.04517 44.2233 4.14794 44.2233 4.27051 44.2233ZM9.88727 44.2026H31.1774C31.1654 44.1503 31.1546 44.1014 31.1444 44.0549L31.1444 44.0547C31.1253 43.9682 31.1081 43.89 31.0883 43.8137C30.9342 43.2189 30.7797 42.6242 30.6253 42.0296L30.6249 42.0281C30.1845 40.3323 29.744 38.6364 29.3107 36.9368C29.2285 36.6147 29.1204 36.5226 28.8958 36.5238C26.7163 36.536 24.5362 36.5338 22.3566 36.5315L21.541 36.5307C20.9092 36.5295 20.5978 36.0544 20.5978 35.1007C20.5974 34.3076 20.5974 33.5141 20.5974 32.7207V32.7088C20.5974 31.9123 20.5974 31.1159 20.597 30.3198V29.8412C20.565 29.8382 20.5374 29.835 20.5125 29.832C20.4697 29.8269 20.4349 29.8228 20.3999 29.8228C19.8246 29.8225 19.2493 29.8226 18.674 29.8227C17.0637 29.823 15.4535 29.8232 13.8437 29.8148C13.6534 29.8136 13.5856 29.9344 13.5239 30.1737C12.8809 32.661 12.2354 35.146 11.5898 37.6312L11.5893 37.6333C11.3041 38.7313 11.0188 39.8292 10.7338 40.9274C10.5387 41.678 10.3446 42.4302 10.1465 43.1982L10.1462 43.1994L9.88727 44.2026ZM9.64518 21.8714H31.4233V16.9178C31.2226 16.9178 31.0237 16.9181 30.8262 16.9185C30.3697 16.9192 29.9201 16.9199 29.4706 16.9167C28.9658 16.9132 28.6415 16.4163 28.6339 15.6467C28.6329 15.5463 28.6332 15.446 28.6336 15.3457V15.3453C28.6338 15.295 28.6339 15.2448 28.6339 15.1946H12.4391L12.4393 15.3549V15.355C12.4394 15.4528 12.4396 15.5443 12.4391 15.6363C12.4323 16.437 12.1201 16.9075 11.5849 16.9178C11.432 16.921 11.279 16.9203 11.1261 16.9196C11.0605 16.9193 10.995 16.919 10.9295 16.919H9.64595C9.64518 18.5951 9.64518 20.2137 9.64518 21.8714ZM1.64331 27.3092H39.4343V24.3447H1.64331V27.3092ZM2.95044 8.96409V21.861H7.97873V8.96409H2.95044ZM33.0913 21.8553H38.1249V8.9687H33.0913V21.8553ZM28.6248 8.67535H12.4551V12.6603H28.6248V8.67535ZM11.862 29.8516H5.9225V44.2233C6.10948 44.2233 6.29462 44.2224 6.47844 44.2215H6.47915C6.95291 44.2192 7.41786 44.2169 7.88281 44.2302C8.07313 44.2359 8.15687 44.1542 8.22843 43.8759C8.89701 41.2746 9.57202 38.6773 10.247 36.0799L10.247 36.0799C10.4721 35.214 10.6971 34.3482 10.9219 33.4822C11.1682 32.5349 11.4131 31.5876 11.6585 30.6387L11.862 29.8516ZM30.9801 36.6398C30.987 36.669 30.9934 36.6964 30.9995 36.7224C31.0213 36.8148 31.0388 36.8893 31.0579 36.9632L32.7456 43.4767L32.7464 43.4798C32.8548 43.8989 32.9022 44.0821 33.0198 44.1622C33.1112 44.2244 33.2449 44.2244 33.4826 44.2244H35.1551V29.847H32.8545C32.8527 29.8972 32.8506 29.9447 32.8486 29.9903L32.8486 29.9908C32.8445 30.0829 32.8408 30.1674 32.8408 30.2519C32.8405 30.8598 32.8405 31.4677 32.8406 32.0755C32.8406 33.0897 32.8407 34.1039 32.8393 35.118C32.8377 36.0372 32.5119 36.5284 31.909 36.5318C31.7101 36.5326 31.5113 36.5323 31.2995 36.5321H31.2994L30.9543 36.5318C30.9636 36.5706 30.9721 36.6063 30.9801 36.6398ZM31.1934 29.8562H22.2445V34.032H31.1934V29.8562ZM37.105 6.40958V6.40953C37.1047 6.38484 37.1046 6.36663 37.0987 6.35618C36.3838 5.10802 35.669 3.861 34.9495 2.61974C34.9039 2.54152 34.8255 2.46099 34.7615 2.45984C34.3438 2.45021 33.9261 2.45124 33.5034 2.45228H33.5033C33.3706 2.45261 33.2373 2.45294 33.1034 2.45294V6.45511H37.1063C37.1052 6.43817 37.1051 6.42293 37.105 6.40958ZM7.98634 2.44949C7.84006 2.44949 7.696 2.44767 7.55357 2.44587C7.189 2.44128 6.83513 2.43682 6.48204 2.46329C6.33283 2.47479 6.1486 2.59213 6.04963 2.75664C5.65432 3.41121 5.27112 4.08343 4.88796 4.75557L4.88794 4.75562L4.8879 4.75569C4.76268 4.97535 4.63747 5.195 4.51184 5.41402C4.37773 5.64853 4.2444 5.88421 4.102 6.13589L4.10194 6.136L3.9226 6.45281H7.98634V2.44949ZM9.65813 6.90721V14.4503H10.8008V6.90721H9.65813ZM30.276 6.90606V14.448H31.4179V6.90606H30.276ZM24.6905 33.1753C24.6301 33.1753 24.5697 33.1768 24.5094 33.1783C24.3795 33.1815 24.2497 33.1848 24.1203 33.173C23.6422 33.1293 23.3171 32.6116 23.3217 31.9191C23.3263 31.2392 23.6673 30.7227 24.1446 30.702C24.4956 30.6859 24.8481 30.6893 25.1998 30.702C25.6878 30.7204 26.0539 31.2599 26.0501 31.934C26.0463 32.622 25.6885 33.15 25.2036 33.1753C25.0894 33.1799 24.9753 33.1784 24.8613 33.1768H24.8611C24.8041 33.1761 24.7473 33.1753 24.6905 33.1753ZM27.9821 33.1754C28.033 33.1741 28.0838 33.1727 28.1345 33.1727V33.1738C28.1856 33.1738 28.2368 33.1747 28.2879 33.1755C28.3977 33.1772 28.5076 33.179 28.6172 33.1727C29.0808 33.1462 29.4211 32.6585 29.4371 32.0051C29.4538 31.3045 29.1516 30.7592 28.6796 30.7097C28.3317 30.6729 27.9785 30.6752 27.6298 30.7097C27.1685 30.7546 26.8594 31.2803 26.8624 31.9544C26.8647 32.6136 27.1905 33.1221 27.6519 33.1704C27.7613 33.1814 27.8718 33.1784 27.9821 33.1754Z"/>
</svg>
