<svg width="21" height="20" viewBox="0 0 21 20" fill="none" xmlns="http://www.w3.org/2000/svg">
<path fill-rule="evenodd" clip-rule="evenodd" d="M10.2188 20C15.7416 20 20.2188 15.5228 20.2188 10C20.2188 4.47715 15.7416 0 10.2188 0C4.6959 0 0.21875 4.47715 0.21875 10C0.21875 15.5228 4.6959 20 10.2188 20ZM13.2188 7.00018C13.2188 8.65707 11.7969 10.0004 10.2188 10.0004C8.64062 10.0004 7.21875 8.65707 7.21875 7.00018C7.21875 5.34328 8.64062 4 10.2188 4C11.7969 4 13.2188 5.34328 13.2188 7.00018ZM5.21875 15.1874C5.21875 12.9443 6.95112 11.1254 9.08705 11.1254H11.3504C13.4866 11.1254 15.2188 12.9443 15.2188 15.1874C15.2188 15.6374 14.8728 16.0007 14.4455 16H5.99241C5.56518 16 5.21875 15.636 5.21875 15.1874Z" fill="#112D4E"/>
</svg>
