<svg width="18" height="18" viewBox="0 0 18 18" fill="none" xmlns="http://www.w3.org/2000/svg">
<path fill-rule="evenodd" clip-rule="evenodd" d="M9 18C13.9706 18 18 13.9706 18 9C18 4.02944 13.9706 0 9 0C4.02944 0 0 4.02944 0 9C0 13.9706 4.02944 18 9 18ZM11.7 6.30016C11.7 7.79136 10.4203 9.00032 9 9.00032C7.57969 9.00032 6.3 7.79136 6.3 6.30016C6.3 4.80895 7.57969 3.6 9 3.6C10.4203 3.6 11.7 4.80895 11.7 6.30016ZM4.5 13.6686C4.5 11.6498 6.05913 10.0129 7.98147 10.0129H10.0185C11.9411 10.0129 13.5 11.6498 13.5 13.6686C13.5 14.0737 13.1886 14.4006 12.8041 14.4H5.19629C4.81179 14.4 4.5 14.0724 4.5 13.6686Z" fill="white"/>
<path fill-rule="evenodd" clip-rule="evenodd" d="M9 18C13.9706 18 18 13.9706 18 9C18 4.02944 13.9706 0 9 0C4.02944 0 0 4.02944 0 9C0 13.9706 4.02944 18 9 18ZM11.7 6.30016C11.7 7.79136 10.4203 9.00032 9 9.00032C7.57969 9.00032 6.3 7.79136 6.3 6.30016C6.3 4.80895 7.57969 3.6 9 3.6C10.4203 3.6 11.7 4.80895 11.7 6.30016ZM4.5 13.6686C4.5 11.6498 6.05913 10.0129 7.98147 10.0129H10.0185C11.9411 10.0129 13.5 11.6498 13.5 13.6686C13.5 14.0737 13.1886 14.4006 12.8041 14.4H5.19629C4.81179 14.4 4.5 14.0724 4.5 13.6686Z" fill="#112D4E" fill-opacity="0.5"/>
</svg>
